<svg xmlns="http://www.w3.org/2000/svg" width="72" height="65" viewBox="0 0 72 65" fill="none">
  <rect x="-2" y="2" width="68" height="61" rx="8" transform="matrix(-1 0 0 1 68 0)" fill="#BD74C9" stroke="#74C996" stroke-width="4"/>
  <path d="M54.4142 31.5858C55.1953 32.3668 55.1953 33.6332 54.4142 34.4142L41.6863 47.1421C40.9052 47.9232 39.6389 47.9232 38.8579 47.1421C38.0768 46.3611 38.0768 45.0948 38.8579 44.3137L50.1716 33L38.8579 21.6863C38.0768 20.9052 38.0768 19.6389 38.8579 18.8579C39.6389 18.0768 40.9052 18.0768 41.6863 18.8579L54.4142 31.5858ZM18 31L53 31L53 35L18 35L18 31Z" fill="#E0DADA"/>
</svg>