<svg xmlns="http://www.w3.org/2000/svg" viewBox="0 0 500 500"><g id="freepik--Floor--inject-106"><path id="freepik--floor--inject-106" d="M76.43,452.65c-95.86-55.34-95.86-145.07,0-200.41s251.28-55.35,347.14,0,95.86,145.07,0,200.41S172.29,508,76.43,452.65Z" style="fill:#fafafa"></path></g><g id="freepik--Shadows--inject-106"><ellipse id="freepik--Shadow--inject-106" cx="427.05" cy="428.98" rx="57.23" ry="33.04" style="fill:#e0e0e0"></ellipse><path id="freepik--shadow--inject-106" d="M175.31,387.18l101,58.3a9.51,9.51,0,0,0,8.63,0l157.51-90.94c2.39-1.37,2.39-3.6,0-5l-101-58.3a9.51,9.51,0,0,0-8.63,0L175.31,382.2C172.93,383.58,172.93,385.81,175.31,387.18Z" style="fill:#e0e0e0"></path><path id="freepik--shadow--inject-106" d="M270.76,271l-17.48-10.1a4.17,4.17,0,0,0-3.77,0L30.12,387.61a1.15,1.15,0,0,0,0,2.18l17.64,10.27a4.16,4.16,0,0,0,3.78,0l37.12-21.49a16.16,16.16,0,0,0,1.64,1.1l28.43,16.41a27.39,27.39,0,0,0,25.2,0l54.87-31.68c4.07-2.35,6.41-5.86,6.41-9.62s-2.34-7.27-6.41-9.62L172.58,330l98.18-56.81A1.15,1.15,0,0,0,270.76,271Z" style="fill:#e0e0e0"></path><path id="freepik--shadow--inject-106" d="M137.6,396.06,71.31,434.27a1.28,1.28,0,0,0,0,2.43l15.59,9a4.68,4.68,0,0,0,4.22,0l66.29-38.21a1.28,1.28,0,0,0,0-2.43l-15.59-9A4.68,4.68,0,0,0,137.6,396.06Z" style="fill:#e0e0e0"></path><g id="freepik--shadow--inject-106"><path d="M162.49,472.52l-.31,0-7.89-.74a3.15,3.15,0,0,1-2.82-3.57l.38-2.92A32.23,32.23,0,0,1,148.5,464a2.72,2.72,0,0,0-.86-.13,1.94,1.94,0,0,0-.48,0L141,466a4,4,0,0,1-1.26.2,4.59,4.59,0,0,1-2.87-1l-4-3.36a2.71,2.71,0,0,1-1-2.39,2.77,2.77,0,0,1,1.54-2.14l4.77-2.46a12.26,12.26,0,0,1-.48-1.36.56.56,0,0,0-.26-.33l-6.8-1.1a3,3,0,0,1-2.09-1.38,3.07,3.07,0,0,1-.28-2.53l1.13-3.55a3.78,3.78,0,0,1,3.51-2.58l7.31.21a2,2,0,0,0,1-.48,18.74,18.74,0,0,1,1.52-1.42l-2.43-2.63a2.7,2.7,0,0,1,1-4.45l6.35-2.64a4.41,4.41,0,0,1,1.65-.31,4.59,4.59,0,0,1,2.51.7l4.21,2.81a2.2,2.2,0,0,0,1,.23h.2c1.4-.26,2.84-.46,4.28-.59a1.11,1.11,0,0,0,.61-.41l1.61-3.12a4.09,4.09,0,0,1,3.51-2.12h.31l7.89.74a3.15,3.15,0,0,1,2.82,3.58l-.38,2.91a32.23,32.23,0,0,1,3.35,1.23,2.66,2.66,0,0,0,.86.14,1.54,1.54,0,0,0,.48-.06l6.17-2a4,4,0,0,1,1.26-.2,4.54,4.54,0,0,1,2.87,1l4,3.35a2.71,2.71,0,0,1,1,2.39,2.77,2.77,0,0,1-1.54,2.14l-4.77,2.46a12.26,12.26,0,0,1,.48,1.36.59.59,0,0,0,.25.33l6.81,1.1a3,3,0,0,1,2.09,1.38,3.08,3.08,0,0,1,.28,2.54l-1.13,3.54a3.78,3.78,0,0,1-3.51,2.58l-7.31-.21a2,2,0,0,0-1,.48A20.7,20.7,0,0,1,187,460l2.43,2.63a2.7,2.7,0,0,1-1,4.45l-6.35,2.64a4.41,4.41,0,0,1-1.65.31,4.67,4.67,0,0,1-2.51-.7l-4.21-2.81a2.2,2.2,0,0,0-1-.23h-.2c-1.39.26-2.83.46-4.27.59a1.1,1.1,0,0,0-.62.41L166,470.39A4.1,4.1,0,0,1,162.49,472.52Zm2.76-29.4a21.6,21.6,0,0,0-8.22,1.54c-3.09,1.28-5.12,3.24-5.43,5.22a4.58,4.58,0,0,0,2,4.07c2.4,2,6.48,3.23,10.9,3.23a21.6,21.6,0,0,0,8.22-1.54c3.09-1.28,5.12-3.23,5.43-5.21a4.59,4.59,0,0,0-2-4.08C173.75,444.33,169.67,443.12,165.25,443.12Z" style="fill:#e0e0e0"></path></g><g id="freepik--shadow--inject-106"><path d="M231.74,477.6h-.31l-6.05-.57a3.07,3.07,0,0,1-2.12-1.15,3.14,3.14,0,0,1-.65-2.35l.22-1.68c-.72-.24-1.43-.5-2.1-.79a1.23,1.23,0,0,0-.39-.05h-.18l-4.71,1.55a3.79,3.79,0,0,1-1.18.18,4.13,4.13,0,0,1-2.63-.91l-3.07-2.57a2.72,2.72,0,0,1,.53-4.59l3.12-1.62c0-.12-.08-.23-.11-.35l-4.93-.8a3,3,0,0,1-2.36-3.87l.87-2.73a3.6,3.6,0,0,1,3.33-2.44l5.63.16a1.74,1.74,0,0,0,.27-.17c.22-.22.44-.44.68-.66l-1.39-1.51a2.75,2.75,0,0,1,1-4.5l4.86-2a4,4,0,0,1,1.53-.29,4.21,4.21,0,0,1,2.3.65l3.23,2.16a1.58,1.58,0,0,0,.4.06c1.11-.2,2.22-.36,3.33-.46h0v0l1.19-2.33a3.84,3.84,0,0,1,3.29-2h.3l6.06.57a3.07,3.07,0,0,1,2.12,1.15,3.15,3.15,0,0,1,.65,2.35l-.22,1.68c.72.24,1.42.5,2.09.79a1.26,1.26,0,0,0,.4.05h.18l4.71-1.55a3.72,3.72,0,0,1,1.17-.18,4.14,4.14,0,0,1,2.64.91l3.06,2.58a2.73,2.73,0,0,1,1,2.42,2.77,2.77,0,0,1-1.54,2.16l-3.13,1.62.12.35,4.93.8A3,3,0,0,1,262,459a3,3,0,0,1,.29,2.5l-.88,2.73a3.58,3.58,0,0,1-3.33,2.44l-5.63-.16a1.78,1.78,0,0,0-.26.17c-.22.22-.45.45-.69.67l1.4,1.5a2.75,2.75,0,0,1-1,4.5l-4.87,2a4,4,0,0,1-1.52.29,4.19,4.19,0,0,1-2.3-.65L240,472.86a1.67,1.67,0,0,0-.4-.06c-1.1.2-2.21.35-3.34.46h0v0l-1.2,2.33A3.82,3.82,0,0,1,231.74,477.6Zm4.49-4.34Zm-2.38-18.21a15.9,15.9,0,0,0-6,1.13c-2.15.89-3.56,2.2-3.75,3.48a2.9,2.9,0,0,0,1.26,2.51c1.73,1.46,4.7,2.32,7.93,2.32a15.9,15.9,0,0,0,6-1.13c2.16-.89,3.56-2.2,3.76-3.48a2.93,2.93,0,0,0-1.26-2.51C240.05,455.91,237.09,455.05,233.85,455.05Zm-3-8.77h0Z" style="fill:#e0e0e0"></path></g></g><g id="freepik--Gears--inject-106"><g id="freepik--gears--inject-106"><path d="M49.72,119.81a2.63,2.63,0,0,1-.42-.07l-4.21-1.08a2.37,2.37,0,0,1-1.58-1.24,2.4,2.4,0,0,1-.06-2l3.1-7.67a1.84,1.84,0,0,0-.41-1.7A13.66,13.66,0,0,1,45,104.56a.69.69,0,0,0-1-.29l-5.74,3.53a2.07,2.07,0,0,1-2,.19,2,2,0,0,1-1.12-1.64l-.88-6.17a4.37,4.37,0,0,1,1.35-3.6l5.78-5a4.15,4.15,0,0,0,1.14-2.17,39.75,39.75,0,0,1,.85-4.18A1.1,1.1,0,0,0,42.92,84l-3.26-1.5A2.6,2.6,0,0,1,38.41,79l4.1-8.5a3.56,3.56,0,0,1,3.32-1.91l4.08.33a2.37,2.37,0,0,0,1.78-.85c1-1.37,2.05-2.67,3.12-3.89A3.82,3.82,0,0,0,55.65,62l-.2-6.06a4.47,4.47,0,0,1,1.68-3.45l6.5-4.81a2.1,2.1,0,0,1,1.95-.36,2.13,2.13,0,0,1,1.31,1.5l1.29,4.8a.47.47,0,0,0,.24.33.59.59,0,0,0,.49,0,21.06,21.06,0,0,1,2.76-.82,3.2,3.2,0,0,0,1.83-1.28l4.22-7.48a3.25,3.25,0,0,1,3.5-1.49l4.21,1.07A2.43,2.43,0,0,1,87,45.17a2.4,2.4,0,0,1,.06,2L84,54.84a1.86,1.86,0,0,0,.41,1.71A13,13,0,0,1,85.52,58a.7.7,0,0,0,1,.29l5.73-3.54a2,2,0,0,1,3.1,1.46l.87,6.17A4.35,4.35,0,0,1,94.83,66l-5.78,5a4.17,4.17,0,0,0-1.15,2.16,38.35,38.35,0,0,1-.84,4.19,1.09,1.09,0,0,0,.54,1.2l3.26,1.51a2.56,2.56,0,0,1,1.35,1.48,2.53,2.53,0,0,1-.11,2L88,92.06A3.55,3.55,0,0,1,84.68,94l-4.07-.32a2.34,2.34,0,0,0-1.78.84c-1,1.37-2,2.67-3.13,3.89a3.9,3.9,0,0,0-.83,2.23l.2,6.06a4.49,4.49,0,0,1-1.68,3.46l-6.5,4.8a2,2,0,0,1-3.26-1.13L62.34,109a.47.47,0,0,0-.24-.33.6.6,0,0,0-.49,0,23.82,23.82,0,0,1-2.76.82A3.25,3.25,0,0,0,57,110.76l-4.21,7.48A3.27,3.27,0,0,1,49.72,119.81Zm-5.11-17.53a2.67,2.67,0,0,1,2,1.23,10.25,10.25,0,0,0,1,1.26,3.73,3.73,0,0,1,.75,3.69l-3.1,7.68a.53.53,0,0,0,0,.43.5.5,0,0,0,.35.25l4.21,1.07a1.33,1.33,0,0,0,1.37-.58l4.21-7.48a5.08,5.08,0,0,1,3.09-2.2,21.51,21.51,0,0,0,2.51-.75,2.45,2.45,0,0,1,2,.09,2.37,2.37,0,0,1,1.21,1.53l1.29,4.8a.53.53,0,0,0,.1.2.62.62,0,0,0,.19-.1l6.5-4.8a2.65,2.65,0,0,0,.9-1.87l-.2-6a5.69,5.69,0,0,1,1.32-3.56c1-1.17,2-2.43,3-3.75a4.22,4.22,0,0,1,3.47-1.62l4.07.32a1.67,1.67,0,0,0,1.46-.83l4.1-8.5a.7.7,0,0,0,0-.53.72.72,0,0,0-.36-.39L86.8,80.31a3,3,0,0,1-1.59-3.41,37,37,0,0,0,.81-4,6.1,6.1,0,0,1,1.78-3.34l5.78-5a2.52,2.52,0,0,0,.71-1.89h0l-.88-6.17a.4.4,0,0,0,0-.19s-.07,0-.16.09L87.47,60a2.57,2.57,0,0,1-3.54-.87,11.07,11.07,0,0,0-1-1.26,3.7,3.7,0,0,1-.75-3.69l3.09-7.67a.5.5,0,0,0,0-.43.55.55,0,0,0-.35-.25L80.75,44.7a1.36,1.36,0,0,0-1.37.59l-4.21,7.48A5.16,5.16,0,0,1,72.08,55a17.83,17.83,0,0,0-2.51.75,2.49,2.49,0,0,1-2-.1,2.37,2.37,0,0,1-1.21-1.53L65.05,49.3a.44.44,0,0,0-.1-.2.41.41,0,0,0-.19.09L58.26,54a2.57,2.57,0,0,0-.9,1.86l.19,6.06a5.76,5.76,0,0,1-1.31,3.56c-1,1.17-2.05,2.43-3,3.74a4.22,4.22,0,0,1-3.47,1.63l-4.08-.33a1.67,1.67,0,0,0-1.45.84l-4.1,8.49a.72.72,0,0,0,0,.54.69.69,0,0,0,.36.39l3.26,1.5a3,3,0,0,1,1.59,3.41,36.21,36.21,0,0,0-.81,4A6.1,6.1,0,0,1,42.72,93l-5.78,5a2.42,2.42,0,0,0-.71,1.89l.87,6.17a.44.44,0,0,0,.06.18l.16-.08,5.73-3.53A2.46,2.46,0,0,1,44.61,102.28Zm13.9-3.88a7.53,7.53,0,0,1-2.21-.54c-2.57-1.08-4.26-3.57-4.75-7-1.07-7.56,4-18.1,11.28-23.49,4.06-3,8.21-4,11.38-2.63,2.58,1.08,4.26,3.56,4.75,7C80,79.3,75,89.84,67.69,95.23h0C64.52,97.57,61.29,98.67,58.51,98.4ZM71.8,66.08c-2.29-.22-5,.76-7.84,2.82-6.78,5-11.5,14.75-10.52,21.7.4,2.78,1.64,4.68,3.6,5.5,2.54,1.06,6,.19,9.52-2.41C73.34,88.68,78.06,79,77.07,72c-.39-2.78-1.63-4.68-3.59-5.5A5.76,5.76,0,0,0,71.8,66.08Z" style="fill:#e0e0e0"></path><path d="M113.05,76.25a1.57,1.57,0,0,1-.3,0L110,75.49a1.73,1.73,0,0,1-1.2-2.36L110.82,68a1.06,1.06,0,0,0-.24-1,9.79,9.79,0,0,1-.77-1c-.07-.11-.25-.27-.43-.15l-3.8,2.35a1.57,1.57,0,0,1-1.46.13,1.52,1.52,0,0,1-.83-1.21l-.58-4.1a3,3,0,0,1,1-2.52l3.84-3.33a2.63,2.63,0,0,0,.7-1.34,27.28,27.28,0,0,1,.57-2.8.56.56,0,0,0-.28-.62l-2.16-1a1.87,1.87,0,0,1-.9-2.52l2.72-5.64A2.53,2.53,0,0,1,110.5,42l2.71.21a1.39,1.39,0,0,0,1.05-.5c.65-.9,1.36-1.77,2.08-2.59a2.4,2.4,0,0,0,.52-1.38l-.13-4a3.11,3.11,0,0,1,1.17-2.42l4.32-3.19a1.55,1.55,0,0,1,1.44-.27,1.59,1.59,0,0,1,1,1.11l.86,3.18c.13.15.2.15.28.12a14.23,14.23,0,0,1,1.85-.55,2,2,0,0,0,1.13-.78l2.8-5A2.29,2.29,0,0,1,134,24.85l2.8.71a1.75,1.75,0,0,1,1.14.91,1.78,1.78,0,0,1,.05,1.45L136,33a1.09,1.09,0,0,0,.24,1,7.08,7.08,0,0,1,.77,1c.08.1.24.26.43.14l3.81-2.34a1.44,1.44,0,0,1,2.28,1.07l.58,4.1a3,3,0,0,1-.94,2.52l-3.84,3.33a2.57,2.57,0,0,0-.71,1.34A24.84,24.84,0,0,1,138,48a.59.59,0,0,0,.28.63l2.16,1a1.86,1.86,0,0,1,.9,2.51l-2.72,5.64a2.48,2.48,0,0,1-2.35,1.35l-2.71-.21a1.42,1.42,0,0,0-1,.5A32.72,32.72,0,0,1,130.44,62a2.48,2.48,0,0,0-.52,1.38l.13,4a3.11,3.11,0,0,1-1.17,2.42L124.57,73a1.56,1.56,0,0,1-1.44.26,1.59,1.59,0,0,1-1-1.1L121.31,69c-.14-.15-.21-.15-.29-.12a13.37,13.37,0,0,1-1.85.55,2,2,0,0,0-1.12.78l-2.8,5A2.33,2.33,0,0,1,113.05,76.25ZM109.7,64.31a1.94,1.94,0,0,1,1.42.88,6.47,6.47,0,0,0,.63.83,2.65,2.65,0,0,1,.53,2.6l-2.06,5.1.13.25,2.79.71a.74.74,0,0,0,.74-.31l2.8-5a3.56,3.56,0,0,1,2.15-1.53,14.61,14.61,0,0,0,1.65-.5,1.77,1.77,0,0,1,1.46.08,1.69,1.69,0,0,1,.88,1.1l.86,3.19L128,68.53a1.64,1.64,0,0,0,.54-1.11l-.13-4a4,4,0,0,1,.91-2.47c.69-.78,1.36-1.61,2-2.47a3,3,0,0,1,2.44-1.14l2.7.21a1,1,0,0,0,.82-.47L140,51.42a.34.34,0,0,0,0-.24.35.35,0,0,0-.16-.17l-2.17-1a2.14,2.14,0,0,1-1.13-2.44,24,24,0,0,0,.53-2.63,4.28,4.28,0,0,1,1.23-2.31l3.84-3.32a1.51,1.51,0,0,0,.42-1.12h0l-.58-4.1-3.72,2.39a1.87,1.87,0,0,1-2.56-.62A6.52,6.52,0,0,0,135,35a2.62,2.62,0,0,1-.53-2.61l2.06-5.1.06-.2-.19-.05-2.8-.71a.72.72,0,0,0-.74.31l-2.8,5A3.57,3.57,0,0,1,128,33.19a12.27,12.27,0,0,0-1.65.49,1.83,1.83,0,0,1-1.47-.07A1.79,1.79,0,0,1,124,32.5l-.85-3.19-4.28,3.21a1.64,1.64,0,0,0-.54,1.11l.13,4a3.92,3.92,0,0,1-.91,2.47,30.3,30.3,0,0,0-2,2.48,3,3,0,0,1-2.44,1.13l-2.71-.21a1,1,0,0,0-.82.47l-2.72,5.64a.29.29,0,0,0,0,.24A.29.29,0,0,0,107,50l2.16,1a2.16,2.16,0,0,1,1.14,2.44,26.73,26.73,0,0,0-.54,2.63,4.21,4.21,0,0,1-1.23,2.31l-3.84,3.32a1.53,1.53,0,0,0-.42,1.13l.58,4.09,3.72-2.38A1.81,1.81,0,0,1,109.7,64.31ZM118.9,62a5.08,5.08,0,0,1-1.51-.38,5.67,5.67,0,0,1-3.25-4.76c-.72-5.08,2.67-12.14,7.55-15.74,2.74-2,5.55-2.68,7.71-1.77a5.69,5.69,0,0,1,3.24,4.76c.72,5.08-2.66,12.14-7.54,15.75h0A9.3,9.3,0,0,1,118.9,62Zm8.82-21.47a7.82,7.82,0,0,0-5.1,1.84c-4.47,3.3-7.58,9.7-6.93,14.27a4.17,4.17,0,0,0,2.3,3.54c1.64.69,3.89.11,6.18-1.58h0c4.46-3.3,7.57-9.7,6.92-14.27a4.15,4.15,0,0,0-2.3-3.54A3.73,3.73,0,0,0,127.72,40.57Z" style="fill:#e0e0e0"></path></g><g id="freepik--Gear--inject-106"><path d="M196.08,432.8a1,1,0,0,1-.59.8l-5.09,2.64a1.42,1.42,0,0,0-.61,1.89,10.92,10.92,0,0,1,.5,1.38,2.27,2.27,0,0,0,1.66,1.61l1.27.21,2.19-1.14a.94.94,0,0,0,.58-.82h0Zm-39.74,2.4c-5.93,2.47-8.06,6.91-5.52,10.62a12.07,12.07,0,0,1,5.44-4c6.88-2.86,16.27-2,21,2a9.21,9.21,0,0,1,1.6,1.69c1.85-2.67,1.44-5.79-1.52-8.28C172.61,433.23,163.22,432.34,156.34,435.2Zm43.48,8.23a1.8,1.8,0,0,1-.07.38l-1.14,3.56a2,2,0,0,1-1.83,1.32l-7.22-.21a2.65,2.65,0,0,0-1.13.24,3.78,3.78,0,0,0-1.22.79,16.91,16.91,0,0,1-1.75,1.59,1.25,1.25,0,0,0-.19,1.87l2.46,2.66a3.07,3.07,0,0,1,.63-.31h0a3,3,0,0,1,1.12-.24l7.22.21a2,2,0,0,0,1.84-1.32l1.12-3.55a1.22,1.22,0,0,0,.07-.41h0Zm-58.59-8.87h0a1,1,0,0,0,.3.71l.36.4a3.28,3.28,0,0,0,.61-.47,16.78,16.78,0,0,1,1.74-1.59,1.25,1.25,0,0,0,.2-1.87l-2.83-3.06a1,1,0,0,1-.3-.56Zm47.18,22.18a1,1,0,0,1-.67.86l-6.35,2.64a2.86,2.86,0,0,1-1.65.09,2.23,2.23,0,0,1-.82-.32l-4.22-2.81a3.86,3.86,0,0,0-2.54-.48c-1.35.25-2.72.43-4.09.56a2.79,2.79,0,0,0-1.39.59,2.47,2.47,0,0,0-.67.78l-1.61,3.13a2.31,2.31,0,0,1-1.17,1,2,2,0,0,1-.89.14l-7.88-.74a1.36,1.36,0,0,1-1.21-1.55l.4-3.05a1.69,1.69,0,0,0-1.16-1.79,29.53,29.53,0,0,1-3.28-1.19,4.31,4.31,0,0,0-2.61-.14l-.07,0-6.09,2a2.78,2.78,0,0,1-1.54,0A2.35,2.35,0,0,1,138,456l-4-3.36a1,1,0,0,1-.38-.68l-.09,6.56a1,1,0,0,0,.4.71l4,3.36a2.73,2.73,0,0,0,1.68.55,1.45,1.45,0,0,0,.36,0s0,0,.05,0a1.14,1.14,0,0,0,.33-.07l6.1-2,.07,0a4.16,4.16,0,0,1,2.61.15,31.67,31.67,0,0,0,3.28,1.18,1.65,1.65,0,0,1,.81.57l-.06,4.47a1.34,1.34,0,0,0,1.22,1.34l7.88.75a2.13,2.13,0,0,0,.89-.14,2.22,2.22,0,0,0,.52-.29,1.55,1.55,0,0,0,.24-.19l0,0a1.12,1.12,0,0,0,.18-.2,2,2,0,0,0,.17-.23l0-.07,1.61-3.13a1.06,1.06,0,0,1,.17-.26.84.84,0,0,1,.15-.18,1.67,1.67,0,0,1,.36-.34,2.78,2.78,0,0,1,1.38-.6,40.19,40.19,0,0,0,4.09-.56,4,4,0,0,1,2.55.49l4.22,2.81a2.1,2.1,0,0,0,.81.3h0l.21,0a3.5,3.5,0,0,0,1,0l.21,0,.27-.09,6.35-2.64a1.11,1.11,0,0,0,.55-.46.8.8,0,0,0,.11-.4Zm-57.5-14.25a1.17,1.17,0,0,1-1-1.15l-.07,6.61h0a1.15,1.15,0,0,0,1,1.15l5.58.9,2.91-1.51a1.43,1.43,0,0,0,.6-1.89,10,10,0,0,1-.51-1.38,2.29,2.29,0,0,0-1.65-1.61Z" style="fill:#e6e6e6"></path><path d="M196.08,432.8a1,1,0,0,1-.59.8l-5.09,2.64a1.42,1.42,0,0,0-.61,1.89,10.92,10.92,0,0,1,.5,1.38,2.27,2.27,0,0,0,1.66,1.61l1.27.21,2.19-1.14a.94.94,0,0,0,.58-.82h0Zm-39.74,2.4c-5.93,2.47-8.06,6.91-5.52,10.62a12.07,12.07,0,0,1,5.44-4c6.88-2.86,16.27-2,21,2a9.21,9.21,0,0,1,1.6,1.69c1.85-2.67,1.44-5.79-1.52-8.28C172.61,433.23,163.22,432.34,156.34,435.2Zm43.48,8.23a1.8,1.8,0,0,1-.07.38l-1.14,3.56a2,2,0,0,1-1.83,1.32l-7.22-.21a2.65,2.65,0,0,0-1.13.24,3.78,3.78,0,0,0-1.22.79,16.91,16.91,0,0,1-1.75,1.59,1.25,1.25,0,0,0-.19,1.87l2.46,2.66a3.07,3.07,0,0,1,.63-.31h0a3,3,0,0,1,1.12-.24l7.22.21a2,2,0,0,0,1.84-1.32l1.12-3.55a1.22,1.22,0,0,0,.07-.41h0Zm-58.59-8.87h0a1,1,0,0,0,.3.71l.36.4a3.28,3.28,0,0,0,.61-.47,16.78,16.78,0,0,1,1.74-1.59,1.25,1.25,0,0,0,.2-1.87l-2.83-3.06a1,1,0,0,1-.3-.56Zm47.18,22.18a1,1,0,0,1-.67.86l-6.35,2.64a2.86,2.86,0,0,1-1.65.09,2.23,2.23,0,0,1-.82-.32l-4.22-2.81a3.86,3.86,0,0,0-2.54-.48c-1.35.25-2.72.43-4.09.56a2.79,2.79,0,0,0-1.39.59,2.47,2.47,0,0,0-.67.78l-1.61,3.13a2.31,2.31,0,0,1-1.17,1,2,2,0,0,1-.89.14l-7.88-.74a1.36,1.36,0,0,1-1.21-1.55l.4-3.05a1.69,1.69,0,0,0-1.16-1.79,29.53,29.53,0,0,1-3.28-1.19,4.31,4.31,0,0,0-2.61-.14l-.07,0-6.09,2a2.78,2.78,0,0,1-1.54,0A2.35,2.35,0,0,1,138,456l-4-3.36a1,1,0,0,1-.38-.68l-.09,6.56a1,1,0,0,0,.4.71l4,3.36a2.73,2.73,0,0,0,1.68.55,1.45,1.45,0,0,0,.36,0s0,0,.05,0a1.14,1.14,0,0,0,.33-.07l6.1-2,.07,0a4.16,4.16,0,0,1,2.61.15,31.67,31.67,0,0,0,3.28,1.18,1.65,1.65,0,0,1,.81.57l-.06,4.47a1.34,1.34,0,0,0,1.22,1.34l7.88.75a2.13,2.13,0,0,0,.89-.14,2.22,2.22,0,0,0,.52-.29,1.55,1.55,0,0,0,.24-.19l0,0a1.12,1.12,0,0,0,.18-.2,2,2,0,0,0,.17-.23l0-.07,1.61-3.13a1.06,1.06,0,0,1,.17-.26.84.84,0,0,1,.15-.18,1.67,1.67,0,0,1,.36-.34,2.78,2.78,0,0,1,1.38-.6,40.19,40.19,0,0,0,4.09-.56,4,4,0,0,1,2.55.49l4.22,2.81a2.1,2.1,0,0,0,.81.3h0l.21,0a3.5,3.5,0,0,0,1,0l.21,0,.27-.09,6.35-2.64a1.11,1.11,0,0,0,.55-.46.8.8,0,0,0,.11-.4Zm-57.5-14.25a1.17,1.17,0,0,1-1-1.15l-.07,6.61h0a1.15,1.15,0,0,0,1,1.15l5.58.9,2.91-1.51a1.43,1.43,0,0,0,.6-1.89,10,10,0,0,1-.51-1.38,2.29,2.29,0,0,0-1.65-1.61Z" style="opacity:0.1"></path><path d="M146.53,454.49l-6.09,2a2.78,2.78,0,0,1-1.54,0l-.08,6.57a3,3,0,0,0,.79.13,1.45,1.45,0,0,0,.36,0s0,0,.05,0a1.14,1.14,0,0,0,.33-.07l6.1-2Z" style="fill:#e0e0e0"></path><path d="M166.68,457.87a2.47,2.47,0,0,0-.67.78l-1.61,3.13a2.31,2.31,0,0,1-1.17,1l-.08,6.59a2.22,2.22,0,0,0,.52-.29,1.55,1.55,0,0,0,.24-.19l0,0a1.12,1.12,0,0,0,.18-.2,2,2,0,0,0,.17-.23l0-.07,1.61-3.13a1.06,1.06,0,0,1,.17-.26c.05-.06.09-.12.15-.18a3.73,3.73,0,0,1,.36-.32v0Z" style="fill:#e0e0e0"></path><path d="M196.08,432.8a1,1,0,0,1-.59.8l-5.1,2.64a1.43,1.43,0,0,0-.6,1.89,8.17,8.17,0,0,1,.5,1.38,2.29,2.29,0,0,0,1.66,1.61l1.27.2,2.19-1.13a.94.94,0,0,0,.58-.82h0Z" style="fill:#e0e0e0"></path><path d="M199.82,443.43a1.8,1.8,0,0,1-.07.38l-1.14,3.56a2,2,0,0,1-1.83,1.32l-7.22-.21a2.65,2.65,0,0,0-1.13.24l-.07,6.59a3,3,0,0,1,1.12-.24l7.22.21a2,2,0,0,0,1.84-1.32l1.12-3.55a1.22,1.22,0,0,0,.07-.41h0Z" style="fill:#e0e0e0"></path><path d="M188.41,456.74a1,1,0,0,1-.67.86l-6.35,2.64a2.86,2.86,0,0,1-1.65.09l-.09,6.58.21,0a3.5,3.5,0,0,0,1,0l.21,0,.27-.09,6.35-2.64a1.11,1.11,0,0,0,.55-.46.8.8,0,0,0,.11-.4Z" style="fill:#e0e0e0"></path><path d="M189.28,428.24l-6.17,2a4.24,4.24,0,0,1-2.61-.14,29.53,29.53,0,0,0-3.28-1.19,1.7,1.7,0,0,1-1.16-1.8l.4-3a1.36,1.36,0,0,0-1.21-1.55l-7.89-.74a2.28,2.28,0,0,0-2.05,1.14l-1.61,3.13a2.81,2.81,0,0,1-2.06,1.37c-1.37.13-2.74.31-4.09.57a4,4,0,0,1-2.55-.49l-4.21-2.81a2.93,2.93,0,0,0-2.47-.23L142,427.12a.92.92,0,0,0-.36,1.57l2.83,3.06a1.24,1.24,0,0,1-.2,1.87,16.78,16.78,0,0,0-1.74,1.59,3.64,3.64,0,0,1-2.35,1l-7.21-.21a2,2,0,0,0-1.84,1.32L130,440.9a1.19,1.19,0,0,0,.95,1.59l6.85,1.11a2.31,2.31,0,0,1,1.66,1.61,9.56,9.56,0,0,0,.5,1.38,1.43,1.43,0,0,1-.6,1.89l-5.1,2.64a.87.87,0,0,0-.19,1.55l4,3.36a2.8,2.8,0,0,0,2.41.45l6.17-2a4.31,4.31,0,0,1,2.61.14,29.53,29.53,0,0,0,3.28,1.19,1.7,1.7,0,0,1,1.16,1.8l-.4,3a1.36,1.36,0,0,0,1.21,1.55l7.89.74a2.28,2.28,0,0,0,2.05-1.14l1.61-3.13a2.81,2.81,0,0,1,2.06-1.37c1.37-.13,2.74-.31,4.09-.57a3.93,3.93,0,0,1,2.54.49l4.22,2.81a2.93,2.93,0,0,0,2.47.23l6.35-2.64a.92.92,0,0,0,.36-1.57L185.27,453a1.24,1.24,0,0,1,.2-1.87,16.78,16.78,0,0,0,1.74-1.59,3.66,3.66,0,0,1,2.35-1l7.21.21a2,2,0,0,0,1.84-1.32l1.14-3.56a1.18,1.18,0,0,0-.95-1.58L192,441.12a2.31,2.31,0,0,1-1.66-1.61,9.56,9.56,0,0,0-.5-1.38,1.43,1.43,0,0,1,.6-1.89l5.1-2.64a.87.87,0,0,0,.19-1.55l-4-3.36A2.8,2.8,0,0,0,189.28,428.24Zm-12,8.94c4.7,3.95,2.94,9.47-3.94,12.33s-16.27,2-21-2-2.94-9.47,3.94-12.33S172.61,433.23,177.31,437.18Z" style="fill:#f5f5f5"></path><path d="M167.22,422.57h.07l7.89.74a.58.58,0,0,1,.51.68l-.4,3a2.48,2.48,0,0,0,1.71,2.64,31.45,31.45,0,0,1,3.19,1.16,5,5,0,0,0,1.88.35,4.44,4.44,0,0,0,1.28-.18l6.17-2a1.6,1.6,0,0,1,.46-.06,2.08,2.08,0,0,1,1.22.37l4,3.36a.32.32,0,0,1,.11.13s0,.08-.16.14l-5.1,2.64a2.19,2.19,0,0,0-.95,2.9,9.63,9.63,0,0,1,.46,1.27,3,3,0,0,0,2.28,2.16l6.85,1.11a.44.44,0,0,1,.31.19.49.49,0,0,1,0,.4l-1.13,3.55a1.24,1.24,0,0,1-1.08.79h0l-7.22-.21h-.07a4.36,4.36,0,0,0-2.85,1.27,18.78,18.78,0,0,1-1.67,1.51,2.14,2.14,0,0,0-.83,1.5,2,2,0,0,0,.54,1.51l2.83,3.05c.09.09.11.17.1.19s-.06.09-.19.15l-6.35,2.64a1.82,1.82,0,0,1-.66.11,2.12,2.12,0,0,1-1.08-.27l-4.22-2.81a4.59,4.59,0,0,0-2.43-.67,3.66,3.66,0,0,0-.68.06,40.5,40.5,0,0,1-4,.56,3.6,3.6,0,0,0-2.68,1.79l-1.61,3.12a1.5,1.5,0,0,1-1.22.73h-.07l-7.89-.74a.58.58,0,0,1-.51-.68l.4-3a2.49,2.49,0,0,0-1.71-2.64,31.45,31.45,0,0,1-3.19-1.16,5,5,0,0,0-1.88-.35,4.11,4.11,0,0,0-1.28.19l-6.17,2a1.6,1.6,0,0,1-.46.06,2.08,2.08,0,0,1-1.22-.37l-4-3.36a.32.32,0,0,1-.11-.13s0-.08.16-.14l5.1-2.64a2.19,2.19,0,0,0,1-2.9,8.39,8.39,0,0,1-.46-1.27,3,3,0,0,0-2.28-2.16L131,441.73a.4.4,0,0,1-.3-.19.46.46,0,0,1,0-.4l1.13-3.55a1.24,1.24,0,0,1,1.08-.79h0l7.22.21h.07a4.36,4.36,0,0,0,2.85-1.27,18.78,18.78,0,0,1,1.67-1.51,2.09,2.09,0,0,0,.82-1.5,2,2,0,0,0-.53-1.51l-2.83-3.05c-.09-.09-.11-.17-.1-.19s.06-.09.19-.15l6.35-2.64a1.82,1.82,0,0,1,.66-.11,2.12,2.12,0,0,1,1.08.27l4.22,2.81a4.59,4.59,0,0,0,2.43.67,3.66,3.66,0,0,0,.68-.06,40.5,40.5,0,0,1,4-.56,3.6,3.6,0,0,0,2.68-1.79L166,423.3a1.5,1.5,0,0,1,1.22-.73M164.46,452a24.36,24.36,0,0,0,9.21-1.74c4-1.66,6.53-4.29,7-7.2.35-2.32-.66-4.6-2.84-6.44-2.9-2.44-7.48-3.84-12.56-3.84a24.36,24.36,0,0,0-9.21,1.74c-4,1.66-6.53,4.29-7,7.2-.35,2.32.66,4.61,2.84,6.44,2.9,2.44,7.48,3.84,12.56,3.84m2.76-30.18a2.31,2.31,0,0,0-1.91,1.15l-1.61,3.13a2.81,2.81,0,0,1-2.06,1.37c-1.37.13-2.74.31-4.09.57a3.12,3.12,0,0,1-.54,0,3.91,3.91,0,0,1-2-.53l-4.21-2.81a2.83,2.83,0,0,0-1.51-.4,2.49,2.49,0,0,0-1,.17L142,427.12a.92.92,0,0,0-.36,1.57l2.83,3.06a1.24,1.24,0,0,1-.2,1.87,16.78,16.78,0,0,0-1.74,1.59,3.66,3.66,0,0,1-2.3,1h0l-7.21-.21h-.05a2,2,0,0,0-1.79,1.32L130,440.9a1.19,1.19,0,0,0,.95,1.59l6.85,1.11a2.31,2.31,0,0,1,1.66,1.61,9.56,9.56,0,0,0,.5,1.38,1.43,1.43,0,0,1-.6,1.89l-5.1,2.64a.87.87,0,0,0-.19,1.55l4,3.36a2.8,2.8,0,0,0,1.71.56,2.23,2.23,0,0,0,.7-.11l6.17-2a3.36,3.36,0,0,1,1-.14,4.23,4.23,0,0,1,1.57.28,29.53,29.53,0,0,0,3.28,1.19,1.7,1.7,0,0,1,1.16,1.8l-.4,3a1.36,1.36,0,0,0,1.21,1.55l7.89.74h.14a2.31,2.31,0,0,0,1.91-1.15l1.61-3.13a2.81,2.81,0,0,1,2.06-1.37c1.37-.13,2.74-.31,4.09-.57a3.12,3.12,0,0,1,.54,0,4,4,0,0,1,2,.53l4.22,2.81a2.83,2.83,0,0,0,1.51.4,2.49,2.49,0,0,0,1-.17l6.35-2.64a.92.92,0,0,0,.36-1.57L185.27,453a1.24,1.24,0,0,1,.2-1.87,16.78,16.78,0,0,0,1.74-1.59,3.66,3.66,0,0,1,2.3-1h.05l7.21.21h0a2,2,0,0,0,1.79-1.32l1.14-3.56a1.18,1.18,0,0,0-.95-1.58L192,441.12a2.31,2.31,0,0,1-1.66-1.61,9.56,9.56,0,0,0-.5-1.38,1.43,1.43,0,0,1,.6-1.89l5.1-2.64a.87.87,0,0,0,.19-1.55l-4-3.36a2.8,2.8,0,0,0-1.71-.56,2.23,2.23,0,0,0-.7.11l-6.17,2a3.36,3.36,0,0,1-1,.14,4.23,4.23,0,0,1-1.57-.28,29.53,29.53,0,0,0-3.28-1.19,1.7,1.7,0,0,1-1.16-1.8l.4-3a1.36,1.36,0,0,0-1.21-1.55l-7.89-.74Zm-2.76,29.4c-4.67,0-9.22-1.26-12.06-3.65-4.7-4-2.94-9.47,3.94-12.33a23.38,23.38,0,0,1,8.91-1.68c4.67,0,9.22,1.26,12.06,3.65,4.7,3.95,2.94,9.47-3.94,12.33a23.42,23.42,0,0,1-8.91,1.68Z" style="fill:#ebebeb"></path></g><g id="freepik--gear--inject-106"><path d="M257.5,446.58a.73.73,0,0,1-.44.61l-3.92,2a1.1,1.1,0,0,0-.46,1.45,7.07,7.07,0,0,1,.38,1.06,1.75,1.75,0,0,0,1.28,1.23l1,.16,1.68-.87a.7.7,0,0,0,.44-.63h0ZM227,448.42c-4.56,1.9-6.19,5.31-4.24,8.15a9.33,9.33,0,0,1,4.17-3.09c5.28-2.19,12.49-1.52,16.1,1.51a7.33,7.33,0,0,1,1.22,1.31c1.42-2.06,1.11-4.45-1.17-6.36C239.5,446.91,232.29,446.23,227,448.42Zm33.35,6.32a1,1,0,0,1-.05.29l-.87,2.73a1.55,1.55,0,0,1-1.41,1l-5.54-.17a2.29,2.29,0,0,0-.86.18,3,3,0,0,0-.94.61,13.24,13.24,0,0,1-1.34,1.22,1,1,0,0,0-.15,1.44l1.89,2a2.16,2.16,0,0,1,.48-.24h0a2.33,2.33,0,0,1,.86-.18l5.54.16a1.54,1.54,0,0,0,1.41-1l.87-2.72a1.15,1.15,0,0,0,0-.31h0Zm-45-6.81h0a.73.73,0,0,0,.22.54l.28.31a2.16,2.16,0,0,0,.46-.36,13.24,13.24,0,0,1,1.34-1.22.94.94,0,0,0,.15-1.43l-2.17-2.35a.81.81,0,0,1-.22-.43Zm36.2,17a.74.74,0,0,1-.52.66l-4.86,2a2.17,2.17,0,0,1-1.27.07,1.69,1.69,0,0,1-.63-.24l-3.23-2.16a3,3,0,0,0-2-.37c-1,.19-2.08.34-3.14.43a2.19,2.19,0,0,0-1.06.45,2,2,0,0,0-.52.6l-1.23,2.4a1.8,1.8,0,0,1-.9.77,1.5,1.5,0,0,1-.68.11l-6.05-.57a1,1,0,0,1-.93-1.19l.31-2.33a1.3,1.3,0,0,0-.89-1.38,24,24,0,0,1-2.51-.91,3.29,3.29,0,0,0-2-.11l0,0-4.68,1.53a2.06,2.06,0,0,1-1.18,0,1.77,1.77,0,0,1-.67-.34l-3.07-2.57a.79.79,0,0,1-.29-.53l-.07,5a.75.75,0,0,0,.31.54l3,2.58a2.08,2.08,0,0,0,1.29.42.82.82,0,0,0,.27,0h.05a1.14,1.14,0,0,0,.25-.06l4.68-1.54,0,0a3.26,3.26,0,0,1,2,.12,26.71,26.71,0,0,0,2.52.91,1.27,1.27,0,0,1,.62.43l0,3.43a1,1,0,0,0,.93,1l6.05.57a1.61,1.61,0,0,0,.68-.1,2.24,2.24,0,0,0,.4-.22l.18-.15,0,0a.67.67,0,0,0,.14-.15,1,1,0,0,0,.12-.17l0-.06,1.23-2.4a1.37,1.37,0,0,1,.13-.2,1.49,1.49,0,0,1,.12-.14,2.16,2.16,0,0,1,1.33-.72,29.64,29.64,0,0,0,3.14-.43,3,3,0,0,1,2,.38l3.23,2.15a1.69,1.69,0,0,0,.63.24h0l.16,0a2.62,2.62,0,0,0,.74,0,.76.76,0,0,0,.16,0,1,1,0,0,0,.21-.07l4.88-2a.82.82,0,0,0,.42-.35.61.61,0,0,0,.08-.3ZM207.5,454a.88.88,0,0,1-.78-.88l-.06,5.07h0a.91.91,0,0,0,.78.88l4.28.69,2.23-1.16a1.1,1.1,0,0,0,.46-1.45,7.44,7.44,0,0,1-.39-1.05,1.78,1.78,0,0,0-1.27-1.25Z" style="fill:#e6e6e6"></path><path d="M257.5,446.58a.73.73,0,0,1-.44.61l-3.92,2a1.1,1.1,0,0,0-.46,1.45,7.07,7.07,0,0,1,.38,1.06,1.75,1.75,0,0,0,1.28,1.23l1,.16,1.68-.87a.7.7,0,0,0,.44-.63h0ZM227,448.42c-4.56,1.9-6.19,5.31-4.24,8.15a9.33,9.33,0,0,1,4.17-3.09c5.28-2.19,12.49-1.52,16.1,1.51a7.33,7.33,0,0,1,1.22,1.31c1.42-2.06,1.11-4.45-1.17-6.36C239.5,446.91,232.29,446.23,227,448.42Zm33.35,6.32a1,1,0,0,1-.05.29l-.87,2.73a1.55,1.55,0,0,1-1.41,1l-5.54-.17a2.29,2.29,0,0,0-.86.18,3,3,0,0,0-.94.61,13.24,13.24,0,0,1-1.34,1.22,1,1,0,0,0-.15,1.44l1.89,2a2.16,2.16,0,0,1,.48-.24h0a2.33,2.33,0,0,1,.86-.18l5.54.16a1.54,1.54,0,0,0,1.41-1l.87-2.72a1.15,1.15,0,0,0,0-.31h0Zm-45-6.81h0a.73.73,0,0,0,.22.54l.28.31a2.16,2.16,0,0,0,.46-.36,13.24,13.24,0,0,1,1.34-1.22.94.94,0,0,0,.15-1.43l-2.17-2.35a.81.81,0,0,1-.22-.43Zm36.2,17a.74.74,0,0,1-.52.66l-4.86,2a2.17,2.17,0,0,1-1.27.07,1.69,1.69,0,0,1-.63-.24l-3.23-2.16a3,3,0,0,0-2-.37c-1,.19-2.08.34-3.14.43a2.19,2.19,0,0,0-1.06.45,2,2,0,0,0-.52.6l-1.23,2.4a1.8,1.8,0,0,1-.9.77,1.5,1.5,0,0,1-.68.11l-6.05-.57a1,1,0,0,1-.93-1.19l.31-2.33a1.3,1.3,0,0,0-.89-1.38,24,24,0,0,1-2.51-.91,3.29,3.29,0,0,0-2-.11l0,0-4.68,1.53a2.06,2.06,0,0,1-1.18,0,1.77,1.77,0,0,1-.67-.34l-3.07-2.57a.79.79,0,0,1-.29-.53l-.07,5a.75.75,0,0,0,.31.54l3,2.58a2.08,2.08,0,0,0,1.29.42.82.82,0,0,0,.27,0h.05a1.14,1.14,0,0,0,.25-.06l4.68-1.54,0,0a3.26,3.26,0,0,1,2,.12,26.71,26.71,0,0,0,2.52.91,1.27,1.27,0,0,1,.62.43l0,3.43a1,1,0,0,0,.93,1l6.05.57a1.61,1.61,0,0,0,.68-.1,2.24,2.24,0,0,0,.4-.22l.18-.15,0,0a.67.67,0,0,0,.14-.15,1,1,0,0,0,.12-.17l0-.06,1.23-2.4a1.37,1.37,0,0,1,.13-.2,1.49,1.49,0,0,1,.12-.14,2.16,2.16,0,0,1,1.33-.72,29.64,29.64,0,0,0,3.14-.43,3,3,0,0,1,2,.38l3.23,2.15a1.69,1.69,0,0,0,.63.24h0l.16,0a2.62,2.62,0,0,0,.74,0,.76.76,0,0,0,.16,0,1,1,0,0,0,.21-.07l4.88-2a.82.82,0,0,0,.42-.35.61.61,0,0,0,.08-.3ZM207.5,454a.88.88,0,0,1-.78-.88l-.06,5.07h0a.91.91,0,0,0,.78.88l4.28.69,2.23-1.16a1.1,1.1,0,0,0,.46-1.45,7.44,7.44,0,0,1-.39-1.05,1.78,1.78,0,0,0-1.27-1.25Z" style="opacity:0.1"></path><path d="M219.49,463.22l-4.68,1.53a2.06,2.06,0,0,1-1.18,0l-.06,5a2.51,2.51,0,0,0,.61.1.82.82,0,0,0,.27,0h.05a1.14,1.14,0,0,0,.25-.06l4.68-1.54Z" style="fill:#e0e0e0"></path><path d="M235,465.81a2,2,0,0,0-.52.6l-1.23,2.4a1.8,1.8,0,0,1-.9.77l-.06,5.06a2.24,2.24,0,0,0,.4-.22l.18-.15,0,0a.67.67,0,0,0,.14-.15,1,1,0,0,0,.12-.17l0-.06,1.23-2.4a1.37,1.37,0,0,1,.13-.2l.12-.14.27-.24v0Z" style="fill:#e0e0e0"></path><path d="M257.51,446.58a.73.73,0,0,1-.46.61l-3.91,2a1.1,1.1,0,0,0-.46,1.45,7.13,7.13,0,0,1,.39,1.06,1.75,1.75,0,0,0,1.27,1.24l1,.15,1.68-.87a.74.74,0,0,0,.45-.63h0Z" style="fill:#e0e0e0"></path><path d="M260.37,454.74a1,1,0,0,1-.05.29l-.87,2.73a1.55,1.55,0,0,1-1.41,1l-5.54-.17a2.29,2.29,0,0,0-.86.18l-.06,5.06a2.33,2.33,0,0,1,.86-.18l5.54.16a1.54,1.54,0,0,0,1.41-1l.87-2.72a1.15,1.15,0,0,0,0-.31h0Z" style="fill:#e0e0e0"></path><path d="M251.62,465a.74.74,0,0,1-.52.66l-4.86,2a2.17,2.17,0,0,1-1.27.07l-.07,5.05.16,0a2.62,2.62,0,0,0,.74,0,.76.76,0,0,0,.16,0,1,1,0,0,0,.21-.07l4.88-2a.82.82,0,0,0,.42-.35.61.61,0,0,0,.08-.3Z" style="fill:#e0e0e0"></path><path d="M252.29,443.08l-4.74,1.55a3.18,3.18,0,0,1-2-.11,24,24,0,0,0-2.51-.91,1.3,1.3,0,0,1-.89-1.38l.3-2.33a1,1,0,0,0-.93-1.19l-6.05-.57a1.75,1.75,0,0,0-1.57.88l-1.23,2.4a2.18,2.18,0,0,1-1.58,1.05c-1.06.1-2.11.24-3.15.43a3,3,0,0,1-1.95-.37l-3.23-2.16a2.29,2.29,0,0,0-1.9-.17l-4.87,2a.71.71,0,0,0-.27,1.21l2.17,2.34a1,1,0,0,1-.16,1.44,14.41,14.41,0,0,0-1.34,1.22,2.75,2.75,0,0,1-1.8.79l-5.53-.16a1.52,1.52,0,0,0-1.41,1l-.87,2.73a.91.91,0,0,0,.72,1.22l5.26.85A1.74,1.74,0,0,1,214,456.1a7.13,7.13,0,0,0,.39,1.06,1.09,1.09,0,0,1-.47,1.45l-3.91,2a.67.67,0,0,0-.14,1.19L213,464.4a2.14,2.14,0,0,0,1.85.35l4.73-1.55a3.22,3.22,0,0,1,2,.11,24,24,0,0,0,2.51.91,1.3,1.3,0,0,1,.89,1.38l-.3,2.33a1,1,0,0,0,.92,1.19l6.05.57a1.76,1.76,0,0,0,1.58-.88l1.23-2.4a2.21,2.21,0,0,1,1.58-1.05c1.06-.09,2.11-.24,3.14-.43a3,3,0,0,1,2,.37l3.23,2.16a2.26,2.26,0,0,0,1.9.17l4.87-2a.71.71,0,0,0,.27-1.21l-2.17-2.34a1,1,0,0,1,.15-1.44,13.24,13.24,0,0,0,1.34-1.22,2.77,2.77,0,0,1,1.8-.79l5.54.16a1.54,1.54,0,0,0,1.41-1l.87-2.73a.91.91,0,0,0-.73-1.22l-5.25-.85a1.74,1.74,0,0,1-1.27-1.23,7.13,7.13,0,0,0-.39-1.06,1.1,1.1,0,0,1,.46-1.45l3.91-2a.67.67,0,0,0,.15-1.19l-3.06-2.57A2.14,2.14,0,0,0,252.29,443.08Zm-9.18,6.86c3.6,3,2.25,7.27-3,9.46s-12.48,1.52-16.09-1.51-2.25-7.27,3-9.46S239.5,446.91,243.11,449.94Z" style="fill:#f5f5f5"></path><path d="M235.36,439.09h0l6.05.57a.06.06,0,0,1,.06,0,.13.13,0,0,1,0,.08l-.31,2.34a2.24,2.24,0,0,0,1.56,2.41,22.72,22.72,0,0,1,2.41.88,4.17,4.17,0,0,0,1.59.29,3.64,3.64,0,0,0,1.09-.15l4.73-1.56a1,1,0,0,1,.25,0,1.24,1.24,0,0,1,.7.21l2.79,2.34-3.62,1.87a2,2,0,0,0-.89,2.69,6.38,6.38,0,0,1,.34.92,2.67,2.67,0,0,0,2,1.92l5.23.85-.87,2.72a.58.58,0,0,1-.47.35l-5.54-.16h-.07a3.68,3.68,0,0,0-2.44,1.09,15.25,15.25,0,0,1-1.25,1.12,2,2,0,0,0-.76,1.41,1.88,1.88,0,0,0,.5,1.42l2,2.14-4.62,1.91a.94.94,0,0,1-.37.06,1.3,1.3,0,0,1-.63-.14l-3.24-2.16a3.91,3.91,0,0,0-2.06-.57,3.61,3.61,0,0,0-.59.05,30.25,30.25,0,0,1-3,.42,3.09,3.09,0,0,0-2.34,1.57l-1.24,2.4a.82.82,0,0,1-.64.36h0l-6.05-.57a.05.05,0,0,1,0,0,.09.09,0,0,1,0-.08l.3-2.34a2.26,2.26,0,0,0-1.55-2.41,20.88,20.88,0,0,1-2.42-.88,4.32,4.32,0,0,0-1.58-.29,3.64,3.64,0,0,0-1.09.15l-4.74,1.56a.8.8,0,0,1-.24,0,1.24,1.24,0,0,1-.7-.21l-2.79-2.34,3.61-1.87a2,2,0,0,0,.89-2.69,6.32,6.32,0,0,1-.33-.92,2.69,2.69,0,0,0-2-1.92l-5.22-.85.86-2.72A.6.6,0,0,1,209,450l5.54.16h.06a3.69,3.69,0,0,0,2.45-1.08,11.47,11.47,0,0,1,1.25-1.13,2,2,0,0,0,.76-1.41,1.85,1.85,0,0,0-.51-1.42l-2-2.13,4.62-1.92a.9.9,0,0,1,.37-.06,1.18,1.18,0,0,1,.63.15l3.23,2.15a4,4,0,0,0,2.07.57,3.61,3.61,0,0,0,.59-.05,30.25,30.25,0,0,1,3-.42,3.09,3.09,0,0,0,2.34-1.57l1.24-2.4a.81.81,0,0,1,.61-.36m-2.12,22.55a19,19,0,0,0,7.21-1.36c3.18-1.32,5.21-3.43,5.57-5.8a5.75,5.75,0,0,0-2.3-5.27c-2.29-1.92-5.89-3-9.87-3a18.92,18.92,0,0,0-7.2,1.36c-3.18,1.32-5.21,3.44-5.57,5.8a5.72,5.72,0,0,0,2.3,5.27c2.29,1.92,5.88,3,9.86,3m2.12-23.5a1.75,1.75,0,0,0-1.46.88l-1.23,2.4a2.18,2.18,0,0,1-1.58,1.05c-1.06.1-2.11.24-3.15.43a1.73,1.73,0,0,1-.41,0,3,3,0,0,1-1.54-.41l-3.23-2.16a2.18,2.18,0,0,0-1.16-.3,2,2,0,0,0-.74.13l-4.87,2a.71.71,0,0,0-.27,1.21l2.17,2.34a1,1,0,0,1-.16,1.44,14.41,14.41,0,0,0-1.34,1.22,2.8,2.8,0,0,1-1.76.79h0l-5.53-.16h0a1.53,1.53,0,0,0-1.38,1l-.87,2.73a.91.91,0,0,0,.72,1.22l5.26.85A1.74,1.74,0,0,1,214,456.1a7.13,7.13,0,0,0,.39,1.06,1.09,1.09,0,0,1-.47,1.45l-3.91,2a.67.67,0,0,0-.14,1.19L213,464.4a2.14,2.14,0,0,0,1.31.43,1.57,1.57,0,0,0,.54-.08l4.73-1.55a2.5,2.5,0,0,1,.8-.11,3.26,3.26,0,0,1,1.21.22,24,24,0,0,0,2.51.91,1.3,1.3,0,0,1,.89,1.38l-.3,2.33a1,1,0,0,0,.92,1.19l6.05.57h.12a1.75,1.75,0,0,0,1.46-.88l1.23-2.4a2.21,2.21,0,0,1,1.58-1.05c1.06-.09,2.11-.24,3.14-.43a1.87,1.87,0,0,1,.42,0,3,3,0,0,1,1.54.41l3.23,2.16a2.18,2.18,0,0,0,1.16.31,2,2,0,0,0,.74-.14l4.87-2a.71.71,0,0,0,.27-1.21l-2.17-2.34a1,1,0,0,1,.15-1.44,13.24,13.24,0,0,0,1.34-1.22,2.8,2.8,0,0,1,1.76-.79h0l5.54.16h0a1.53,1.53,0,0,0,1.38-1l.87-2.73a.91.91,0,0,0-.73-1.22l-5.25-.85a1.74,1.74,0,0,1-1.27-1.23,7.13,7.13,0,0,0-.39-1.06,1.1,1.1,0,0,1,.46-1.45l3.91-2a.67.67,0,0,0,.15-1.19l-3.06-2.57a2.14,2.14,0,0,0-1.31-.43,1.8,1.8,0,0,0-.54.08l-4.74,1.55a2.4,2.4,0,0,1-.79.11,3.26,3.26,0,0,1-1.21-.22,24,24,0,0,0-2.51-.91,1.3,1.3,0,0,1-.89-1.38l.3-2.33a1,1,0,0,0-.93-1.19l-6.05-.57Zm-2.12,22.55c-3.58,0-7.07-1-9.25-2.8-3.61-3-2.25-7.27,3-9.46a18,18,0,0,1,6.83-1.29c3.59,0,7.08,1,9.26,2.8,3.6,3,2.25,7.27-3,9.46a18,18,0,0,1-6.84,1.29Z" style="fill:#ebebeb"></path></g></g><g id="freepik--device-3--inject-106"><g id="freepik--Monitor--inject-106"><path d="M196.76,344.86l-28.43-16.42c-5.83-3.36-15.66-4.13-22-1.71l-16.88,6.49a96.64,96.64,0,0,0-21,11.93L91.36,358.67c-2.47,1.95-3.68,4.31-3.69,6.62,0,.65,0,3.26,0,3.92,0,2.62,1.59,5.15,4.67,6.93l28.43,16.41c5.83,3.37,15.29,3.37,21.13,0l54.86-31.67c2.93-1.7,4.38-3.91,4.37-6.13,0-.63,0-3.15,0-3.79C201.13,348.75,199.68,346.54,196.76,344.86Z" style="fill:#e6e6e6"></path><path d="M87.67,369.21c0,2.62,1.59,5.15,4.67,6.93l28.43,16.41a21.51,21.51,0,0,0,10.56,2.53V391L87.67,365.81Z" style="fill:#e0e0e0"></path><path d="M87.67,369.21c0,2.62,1.59,5.15,4.67,6.93l28.43,16.41a21.51,21.51,0,0,0,10.56,2.53V391L87.67,365.81Z" style="opacity:0.1"></path><path d="M146.38,326.73l-16.88,6.49a96.64,96.64,0,0,0-21,11.93L91.36,358.67c-5.3,4.17-4.86,10.28,1,13.65l28.43,16.42c5.83,3.37,15.29,3.37,21.13,0l54.86-31.68c5.84-3.37,5.84-8.83,0-12.2l-28.43-16.42C162.5,325.08,152.67,324.31,146.38,326.73Z" style="fill:#f0f0f0"></path><path d="M168.33,328.44c-5.83-3.36-15.66-4.13-22-1.71l-16.88,6.49a96.64,96.64,0,0,0-21,11.93L91.36,358.67c-2.47,1.95-3.68,4.31-3.69,6.62,0,.65,0,3.26,0,3.92,0,2.62,1.59,5.15,4.67,6.93l15.84,9.14v-3.8l76-43.88Z" style="opacity:0.1"></path><path d="M141.69,345.71c0-8.38,2.63-34.78,8.14-41l-17.61-1.94c-8.65,9.15-19,31-25.29,43.6,0,0,5.17,2.11,11.54,4.74s15.24,2.63,19.8,0a6.12,6.12,0,0,0,3.42-5.44Z" style="fill:#e0e0e0"></path><path d="M141.69,345.71c0-8.38,2.63-34.78,8.14-41l-17.61-1.94c-8.65,9.15-19,31-25.29,43.6,0,0,5.17,2.11,11.54,4.74s15.24,2.63,19.8,0a6.12,6.12,0,0,0,3.42-5.44Z" style="opacity:0.1"></path><path d="M138.41,305.35c3.41,1.41,8.17,1.41,10.61,0s2.45-4.16,0-6.14l-4.43-3.57a50.67,50.67,0,0,0-12.37,7.17Z" style="fill:#e0e0e0"></path><path d="M42.14,363.28a10,10,0,0,0,9.07-.17l213.08-123A10.37,10.37,0,0,0,269,232V35.08a10.06,10.06,0,0,0-4.39-7.94,10,10,0,0,0-9.07.17l-213.07,123a10.32,10.32,0,0,0-4.68,8.1V355.34A10,10,0,0,0,42.14,363.28Z" style="fill:#455a64"></path><path d="M51.21,363.11l213.08-123A10.35,10.35,0,0,0,269,232V35.07c0-3-2.1-4.19-4.68-2.7l-213.07,123a10.32,10.32,0,0,0-4.68,8.1V360.4C46.53,363.39,48.63,364.6,51.21,363.11Z" style="fill:#37474f"></path><path d="M46.53,344.48V360.4c0,3,2.1,4.2,4.68,2.71l213.08-123A10.35,10.35,0,0,0,269,232V216Z" style="fill:#ebebeb"></path><path d="M52.72,329.68V165.6a6.33,6.33,0,0,1,2.88-5l204.3-118c1.59-.91,2.88-.17,2.88,1.66V208.38a6.37,6.37,0,0,1-2.88,5L55.6,331.34C54,332.26,52.72,331.51,52.72,329.68Z" style="fill:#fff"></path><path d="M39.13,153.83l8.78,5a10,10,0,0,0-1.38,4.63V360.4c0,2.73,1.85,4.25,4.68,2.71a10,10,0,0,1-9.07.17,9,9,0,0,1-4.39-7.37V158.45A9.7,9.7,0,0,1,39.13,153.83Z" style="fill:#263238"></path><path d="M155.17,290.65l10.58-6.08c.95-.54,1.72-.15,1.72.87a3.69,3.69,0,0,1-1.71,2.85l-10.59,6.08c-.95.54-1.71.16-1.71-.87A3.67,3.67,0,0,1,155.17,290.65Z" style="fill:#4FEB7B"></path></g></g><g id="freepik--screen-3--inject-106"><g id="freepik--Window--inject-106"><g id="freepik--window--inject-106"><path d="M61.33,182.56a4.36,4.36,0,0,1-1.9-3.44V168a4.49,4.49,0,0,1,2-3.51L252.08,54.39a3.81,3.81,0,0,1,5.83,3.37V68.88a4.45,4.45,0,0,1-2,3.51L65.26,182.49A4.36,4.36,0,0,1,61.33,182.56Z" style="fill:#e0e0e0"></path><path d="M63.82,168.2a4.19,4.19,0,0,0-.59,2v6.13l-3.81-2.2V168a1.93,1.93,0,0,1,0-.24,3.92,3.92,0,0,1,.07-.51A4.84,4.84,0,0,1,60,166Z" style="opacity:0.15"></path><path d="M257.91,57.75v6.13L126.12,140,68.82,173.1l-5.59,3.22v-6.13a4.49,4.49,0,0,1,2-3.51L255.89,56.58C257,55.94,257.91,56.46,257.91,57.75Z" style="fill:#f0f0f0"></path><path d="M252.36,61.6c.72-.42,1.31-.08,1.31.76a2.92,2.92,0,0,1-1.31,2.27c-.72.41-1.31.08-1.31-.76A2.9,2.9,0,0,1,252.36,61.6Z" style="fill:#fff"></path><path d="M247.64,64.32c.73-.42,1.31-.08,1.31.76a2.89,2.89,0,0,1-1.31,2.27c-.72.41-1.31.08-1.31-.76A2.9,2.9,0,0,1,247.64,64.32Z" style="fill:#fff"></path><path d="M242.93,67c.72-.42,1.31-.08,1.31.76a2.92,2.92,0,0,1-1.31,2.27c-.73.41-1.31.08-1.31-.76A2.88,2.88,0,0,1,242.93,67Z" style="fill:#fff"></path><path d="M65.26,319.44a3.51,3.51,0,0,1-1.59.49,4.09,4.09,0,0,1-2.34-.41,4.36,4.36,0,0,1-1.9-3.44v-142l3.81,2.2v142c0,.92.47,1.45,1.13,1.45A2,2,0,0,0,65.26,319.44Z" style="fill:#e0e0e0"></path><path d="M64.36,319.47c-.55,0-.87-.45-.87-1.2V176.47l62.76-36.24L257.66,64.31V205.83a4.19,4.19,0,0,1-1.9,3.3L65.13,319.23A1.56,1.56,0,0,1,64.36,319.47Z" style="fill:#fafafa"></path><path d="M257.41,64.75V205.83a4,4,0,0,1-1.77,3.08L65,319a1.33,1.33,0,0,1-.65.21c-.56,0-.62-.66-.62-1V176.61l5.33-3.08,57.3-33.09,131-75.69m.5-.87L126.12,140,68.82,173.1l-5.59,3.22v142c0,.92.46,1.45,1.13,1.45a1.83,1.83,0,0,0,.9-.28l190.63-110.1a4.46,4.46,0,0,0,2-3.51V63.88Z" style="fill:#e0e0e0"></path></g><polygon points="250.71 122.56 70.43 226.65 70.43 199.24 250.71 95.16 250.71 122.56" style="fill:#f0f0f0"></polygon><path d="M233.87,184.28,200.23,203.7c-.86.5-1.55,0-1.55-1.17V166.39a3.71,3.71,0,0,1,1.55-3L233.87,144c.86-.5,1.55,0,1.55,1.17v36.14A3.69,3.69,0,0,1,233.87,184.28Z" style="fill:#e0e0e0"></path><path d="M233.87,184.28,200.23,203.7c-.86.5-1.55,0-1.55-1.17V166.39a3.71,3.71,0,0,1,1.55-3L233.87,144c.86-.5,1.55,0,1.55,1.17v36.14A3.69,3.69,0,0,1,233.87,184.28Z" style="opacity:0.05"></path><polygon points="201.28 199.08 201.28 187.95 210.69 168.45 221.54 177.87 218.97 172.75 224.73 162.72 232.82 169.44 232.82 180.88 201.28 199.08" style="fill:#fafafa"></polygon><path d="M220.7,161.1a5.64,5.64,0,0,1-2.14,4.52c-1.18.68-2.13-.24-2.13-2.06s.95-3.84,2.13-4.52S220.7,159.28,220.7,161.1Z" style="fill:#fafafa"></path><path d="M179.44,215.71l-33.65,19.42c-.85.5-1.55,0-1.55-1.17V197.82a3.72,3.72,0,0,1,1.55-3l33.65-19.42c.85-.5,1.55,0,1.55,1.17v36.13A3.74,3.74,0,0,1,179.44,215.71Z" style="fill:#e0e0e0"></path><polygon points="146.85 230.51 146.85 219.38 156.26 199.88 167.1 209.3 164.54 204.17 170.29 194.15 178.38 200.87 178.38 212.31 146.85 230.51" style="fill:#fafafa"></polygon><path d="M166.26,192.52c0,1.82-.95,3.84-2.13,4.52s-2.14-.23-2.14-2a5.63,5.63,0,0,1,2.14-4.52C165.31,189.79,166.26,190.71,166.26,192.52Z" style="fill:#fafafa"></path><path d="M125,247.14,91.36,266.56c-.86.49-1.55,0-1.55-1.17V229.25a3.69,3.69,0,0,1,1.55-3L125,206.86c.86-.49,1.55,0,1.55,1.18v36.13A3.71,3.71,0,0,1,125,247.14Z" style="fill:#f0f0f0"></path><polygon points="92.41 261.94 92.41 250.8 101.83 231.31 112.67 240.73 110.1 235.6 115.86 225.58 123.94 232.29 123.94 243.74 92.41 261.94" style="fill:#fafafa"></polygon><path d="M111.83,224a5.63,5.63,0,0,1-2.14,4.52c-1.18.68-2.13-.24-2.13-2.05s1-3.84,2.13-4.52S111.83,222.14,111.83,224Z" style="fill:#fafafa"></path><path d="M176.83,226.48,148.4,242.89c-.62.36-1.12,0-1.12-.85v-.22a2.69,2.69,0,0,1,1.12-2.15l28.43-16.41c.62-.36,1.12,0,1.12.85v.22A2.69,2.69,0,0,1,176.83,226.48Z" style="fill:#e0e0e0"></path><path d="M122.39,257.91,94,274.32c-.62.36-1.12,0-1.12-.85v-.22A2.69,2.69,0,0,1,94,271.1l28.43-16.41c.63-.36,1.13,0,1.13.85v.22A2.68,2.68,0,0,1,122.39,257.91Z" style="fill:#e0e0e0"></path><path d="M231.27,195.05l-28.43,16.41c-.63.36-1.13,0-1.13-.85v-.22a2.68,2.68,0,0,1,1.13-2.15l28.43-16.41c.62-.36,1.12,0,1.12.85v.22A2.69,2.69,0,0,1,231.27,195.05Z" style="fill:#e0e0e0"></path><path d="M144.24,250.71a.57.57,0,0,1-.5-.29.59.59,0,0,1,.21-.79l36.75-21.21a.58.58,0,0,1,.79.21.58.58,0,0,1-.21.79l-36.75,21.22A.59.59,0,0,1,144.24,250.71Z" style="fill:#e0e0e0"></path><path d="M144.24,255.26a.57.57,0,0,1-.5-.29.59.59,0,0,1,.21-.79L180.7,233a.58.58,0,0,1,.79.21.58.58,0,0,1-.21.79l-36.75,21.21A.51.51,0,0,1,144.24,255.26Z" style="fill:#e0e0e0"></path><path d="M144.24,259.81a.57.57,0,0,1-.5-.29.58.58,0,0,1,.21-.79l36.75-21.21a.58.58,0,0,1,.79.21.58.58,0,0,1-.21.79l-36.75,21.21A.51.51,0,0,1,144.24,259.81Z" style="fill:#e0e0e0"></path><path d="M144.24,264.36a.59.59,0,0,1-.5-.29.58.58,0,0,1,.21-.79l36.75-21.22a.58.58,0,0,1,.58,1l-36.75,21.21A.6.6,0,0,1,144.24,264.36Z" style="fill:#e0e0e0"></path><path d="M198.68,219.29a.58.58,0,0,1-.5-.29.59.59,0,0,1,.21-.8L235.13,197a.58.58,0,0,1,.79.21.57.57,0,0,1-.21.79L199,219.21A.6.6,0,0,1,198.68,219.29Z" style="fill:#e0e0e0"></path><path d="M198.68,223.83a.56.56,0,0,1-.5-.29.58.58,0,0,1,.21-.79l36.74-21.21a.58.58,0,1,1,.58,1L199,223.76A.59.59,0,0,1,198.68,223.83Z" style="fill:#e0e0e0"></path><path d="M198.68,228.38a.56.56,0,0,1-.5-.29.58.58,0,0,1,.21-.79l36.74-21.21a.58.58,0,1,1,.58,1L199,228.3A.51.51,0,0,1,198.68,228.38Z" style="fill:#e0e0e0"></path><path d="M198.68,232.93a.56.56,0,0,1-.5-.29.57.57,0,0,1,.21-.79l36.74-21.21a.58.58,0,1,1,.58,1L199,232.85A.51.51,0,0,1,198.68,232.93Z" style="fill:#e0e0e0"></path><path d="M89.81,282.14a.56.56,0,0,1-.5-.29.57.57,0,0,1,.21-.79l36.74-21.21a.58.58,0,1,1,.58,1L90.1,282.06A.51.51,0,0,1,89.81,282.14Z" style="fill:#e0e0e0"></path><path d="M89.81,286.69a.56.56,0,0,1-.5-.29.57.57,0,0,1,.21-.79l36.74-21.21a.58.58,0,1,1,.58,1L90.1,286.61A.51.51,0,0,1,89.81,286.69Z" style="fill:#e0e0e0"></path><path d="M89.81,291.24a.56.56,0,0,1-.5-.29.57.57,0,0,1,.21-.79l36.74-21.22a.59.59,0,0,1,.79.22.58.58,0,0,1-.21.79L90.1,291.16A.6.6,0,0,1,89.81,291.24Z" style="fill:#e0e0e0"></path><path d="M89.81,295.79a.58.58,0,0,1-.29-1.08l36.74-21.22a.58.58,0,0,1,.58,1L90.1,295.71A.6.6,0,0,1,89.81,295.79Z" style="fill:#e0e0e0"></path><polygon points="250.71 86.27 228.54 99.07 228.54 90.8 250.71 78 250.71 86.27" style="fill:#e0e0e0"></polygon><polygon points="227.51 99.66 205.34 112.46 205.34 104.19 227.51 91.39 227.51 99.66" style="fill:#e0e0e0"></polygon><polygon points="204.31 113.05 182.14 125.85 182.14 117.59 204.31 104.79 204.31 113.05" style="fill:#e0e0e0"></polygon><polygon points="92.61 177.55 70.43 190.35 70.43 182.08 92.61 169.28 92.61 177.55" style="fill:#e0e0e0"></polygon></g><g id="freepik--check-mark--inject-106"><ellipse cx="157.75" cy="186.99" rx="36.03" ry="20.38" transform="matrix(0.39, -0.92, 0.92, 0.39, -76.08, 258.93)" style="fill:#fff"></ellipse><path d="M148.42,222.09a12.87,12.87,0,0,1-6.52-1.7c-5.48-3.16-8.62-10.4-8.62-19.85,0-17.57,10.75-38.08,24-45.71,6-3.44,11.77-3.88,16.36-1.24,5.47,3.16,8.61,10.4,8.61,19.85,0,17.57-10.75,38.08-24,45.71A19.82,19.82,0,0,1,148.42,222.09Zm18.66-68.2a18,18,0,0,0-8.83,2.67c-12.66,7.32-23,27-23,44,0,8.72,2.78,15.32,7.62,18.12,3.93,2.27,9,1.83,14.35-1.24,12.67-7.32,23-27,23-44,0-8.72-2.77-15.32-7.61-18.11A10.92,10.92,0,0,0,167.08,153.89Z" style="fill:#4FEB7B"></path><polygon points="152.16 207.47 142.91 200.47 146.91 192.83 151.81 196.54 168.25 165.18 172.59 168.47 152.16 207.47" style="fill:#4FEB7B"></polygon></g></g><g id="freepik--device-2--inject-106"><g id="freepik--Laptop--inject-106"><path d="M177.31,377.69a8.79,8.79,0,0,0,4.1,6.81l96,55.41a9.11,9.11,0,0,0,8.2,0l149.7-86.43a7.71,7.71,0,0,0,0-13.62l-96-55.41a9,9,0,0,0-8.2,0l-149.7,86.43A8.79,8.79,0,0,0,177.31,377.69Z" style="fill:#37474f"></path><path d="M181.41,375.61l96,55.41a9,9,0,0,0,8.2,0l149.7-86.42c2.27-1.31,2.27-3.43,0-4.74l-96-55.41a9,9,0,0,0-8.2,0l-149.7,86.43C179.14,372.19,179.14,374.31,181.41,375.61Z" style="fill:#455a64"></path><path d="M281.47,432v8.87a8.42,8.42,0,0,1-4.1-1l-96-55.41a7.67,7.67,0,0,1-.41-13.35c-1.84,1.31-1.7,3.24.41,4.47l96,55.41A8.43,8.43,0,0,0,281.47,432Z" style="fill:#263238"></path><path d="M173.46,371c-2.12-1.23-2-3.3-2-5.91V247.88a9.05,9.05,0,0,1,4.1-7.1l149.7-86.43c2.27-1.31,5.56-1.32,7.48.21s2.48,2.94,2.48,5.55V277.35a9.07,9.07,0,0,1-4.1,7.1l-149.7,86.43A8.81,8.81,0,0,1,173.46,371Z" style="fill:#37474f"></path><path d="M335.21,160.11c0-2.61-1.84-3.67-4.1-2.37L181.4,244.18a8.29,8.29,0,0,0-2.89,3.06l-5.85-3.4h0a8.43,8.43,0,0,1,2.9-3.07l149.7-86.42c2.26-1.31,5.57-1.34,7.47.21S335.21,157.5,335.21,160.11Z" style="fill:#455a64"></path><path d="M180.92,371.13a8.79,8.79,0,0,1-7.46-.11c-2.12-1.22-2-3.29-2-5.9V247.87a8.28,8.28,0,0,1,1.21-4l5.85,3.39h0a8.42,8.42,0,0,0-1.21,4V368.52C177.3,370.94,178.89,372,180.92,371.13Z" style="fill:#263238"></path><path d="M183.61,248.9l144.06-83.15c1.36-.78,2.46-.15,2.46,1.42v109a5.42,5.42,0,0,1-2.46,4.26L183.61,363.61c-1.36.79-2.46.15-2.46-1.42v-109A5.45,5.45,0,0,1,183.61,248.9Z"></path><path d="M183.61,248.9a5.45,5.45,0,0,0-2.46,4.26V360.29l142.42-82.2a5.42,5.42,0,0,0,2.46-4.26V166.7Z" style="fill:#fff"></path><path d="M194.07,371.58l137.57-79.43a4.3,4.3,0,0,1,3.86,0l5,2.81a1.18,1.18,0,0,1,0,2.24L202.92,376.61a4.3,4.3,0,0,1-3.86,0l-5-2.8A1.18,1.18,0,0,1,194.07,371.58Z" style="fill:#263238"></path><path d="M207.58,379.55l137.56-79.43a4,4,0,0,1,3.54-.19l35.8,20.67c.89.51.74,1.42-.33,2L246.74,402a4,4,0,0,1-3.53.2l-36-20.58C206.36,381.07,206.51,380.16,207.58,379.55Z" style="fill:#263238"></path><path d="M326.78,333.48l4.31-2.49c.18-.1.2-.26,0-.36L327,328.25a.71.71,0,0,0-.62,0l-4.31,2.49c-.18.11-.2.27,0,.36l4.13,2.38A.65.65,0,0,0,326.78,333.48Zm-6.29-8.6-4.31,2.48c-.18.11-.19.27,0,.36l4.12,2.38a.65.65,0,0,0,.62,0l4.31-2.49c.18-.1.2-.26,0-.36l-4.12-2.38A.7.7,0,0,0,320.49,324.88Zm-13.91,8-7.29,4.21c-.19.1-.2.27,0,.36l4.12,2.38a.74.74,0,0,0,.63,0l7.29-4.21c.18-.11.2-.27,0-.36l-4.12-2.38A.65.65,0,0,0,306.58,332.91Zm7.62-4.4L309.89,331c-.18.1-.2.26,0,.36l4.12,2.38a.73.73,0,0,0,.63,0l4.31-2.49c.18-.11.2-.27,0-.36l-4.12-2.38A.65.65,0,0,0,314.2,328.51Zm-16.9,9.76L293,340.75c-.18.11-.2.27,0,.36l4.13,2.38a.65.65,0,0,0,.62,0L302,341c.18-.1.2-.26,0-.36l-4.12-2.38A.7.7,0,0,0,297.3,338.27ZM291,341.9l-4.3,2.49c-.19.1-.2.26,0,.36l4.12,2.38a.74.74,0,0,0,.63,0l4.3-2.49c.19-.11.2-.27,0-.36l-4.12-2.38A.7.7,0,0,0,291,341.9Zm16.16,9.71,4.3-2.49c.19-.1.2-.27,0-.36l-4.12-2.38a.74.74,0,0,0-.63,0l-4.3,2.49c-.19.11-.2.27,0,.36l4.12,2.38A.74.74,0,0,0,307.16,351.61Zm-6.3,3.63,4.31-2.48c.18-.11.2-.27,0-.37L301.08,350a.65.65,0,0,0-.62,0l-4.31,2.48c-.18.11-.2.27,0,.37l4.13,2.37A.65.65,0,0,0,300.86,355.24Zm-6.29,3.64,4.3-2.49c.19-.1.2-.27,0-.36l-4.12-2.38a.74.74,0,0,0-.63,0l-4.3,2.49c-.19.1-.2.27,0,.36l4.12,2.38A.74.74,0,0,0,294.57,358.88Zm-6.3,3.63,4.31-2.48c.18-.11.2-.27,0-.37l-4.12-2.37a.65.65,0,0,0-.62,0l-4.31,2.48c-.18.11-.2.27,0,.36l4.12,2.38A.67.67,0,0,0,288.27,362.51Zm32.22-25.4,4.3-2.48c.19-.11.2-.27,0-.36l-4.12-2.38a.67.67,0,0,0-.63,0l-4.3,2.49c-.19.1-.2.26,0,.36l4.12,2.38A.7.7,0,0,0,320.49,337.11Zm-7,10.86,9.61-5.54c.18-.11.2-.27,0-.36l-10-5.78a.67.67,0,0,0-.63,0l-5,2.87c-.18.1-.2.27,0,.36l5.29,3.06c.17.09.15.25,0,.36l-4,2.3c-.18.1-.2.26,0,.36l4.13,2.38A.68.68,0,0,0,313.45,348Zm-28.74-2.43L280.4,348c-.18.11-.2.27,0,.36l4.13,2.38a.65.65,0,0,0,.62,0l4.31-2.49c.18-.1.2-.26,0-.36l-4.13-2.38A.68.68,0,0,0,284.71,345.54Zm-6.3,3.63-4.3,2.49c-.19.1-.2.26,0,.36l4.12,2.38a.74.74,0,0,0,.63,0l4.3-2.49c.19-.11.2-.27,0-.36L279,349.15A.67.67,0,0,0,278.41,349.17ZM243.58,388a.68.68,0,0,0,.62,0l4.31-2.48c.18-.11.2-.27,0-.36l-4.12-2.38a.67.67,0,0,0-.63,0l-4.31,2.48c-.18.11-.2.27,0,.37Zm-15.53-9.73-4.31,2.48c-.18.11-.2.27,0,.36l4.12,2.38a.65.65,0,0,0,.62,0l4.31-2.48c.18-.11.2-.27,0-.37l-4.12-2.37A.67.67,0,0,0,228.05,378.25Zm8,7.28a.67.67,0,0,0,.63,0L241,383c.18-.1.2-.26,0-.36l-4.12-2.38a.68.68,0,0,0-.62,0L232,382.79c-.18.11-.2.27,0,.36Zm17.37,3.91,4.31-2.49c.18-.1.2-.26,0-.36l-4.12-2.38a.73.73,0,0,0-.63,0l-4.31,2.49c-.18.11-.2.27,0,.36l4.12,2.38A.68.68,0,0,0,253.4,389.44Zm-6.92,3.66a.7.7,0,0,0,.63,0l4.31-2.48c.18-.11.19-.27,0-.36l-4.12-2.38a.65.65,0,0,0-.62,0l-4.31,2.49c-.18.1-.2.26,0,.36Zm-12.13-18.49L230,377.1c-.18.1-.2.27,0,.36l4.12,2.38a.73.73,0,0,0,.63,0l4.31-2.49c.18-.1.2-.27,0-.36L235,374.59A.71.71,0,0,0,234.35,374.61Zm31.47-18.17-4.3,2.49c-.19.1-.2.26,0,.36l4.12,2.38a.7.7,0,0,0,.63,0l4.3-2.48c.19-.11.2-.27,0-.36l-4.12-2.38A.67.67,0,0,0,265.82,356.44ZM240.64,371l-4.3,2.48c-.19.11-.2.27,0,.37l4.12,2.37a.65.65,0,0,0,.62,0l4.31-2.48c.18-.11.2-.27,0-.37L241.27,371A.67.67,0,0,0,240.64,371Zm31.48-18.18-4.31,2.49c-.18.11-.2.27,0,.36l4.12,2.38a.67.67,0,0,0,.63,0l4.31-2.49c.18-.1.2-.26,0-.36l-4.13-2.38A.71.71,0,0,0,272.12,352.8Zm-12.59,7.27-4.31,2.49c-.18.11-.2.27,0,.36l4.12,2.38a.7.7,0,0,0,.63,0l4.31-2.49c.18-.1.2-.27,0-.36l-4.12-2.38A.71.71,0,0,0,259.53,360.07Zm-6.3,3.64-4.3,2.49c-.19.1-.2.26,0,.36l4.12,2.38a.7.7,0,0,0,.63,0l4.3-2.48c.19-.11.2-.27,0-.36l-4.12-2.38A.67.67,0,0,0,253.23,363.71Zm-6.29,3.63-4.31,2.49c-.18.11-.2.27,0,.36l4.12,2.38a.73.73,0,0,0,.63,0l4.31-2.49c.18-.1.2-.27,0-.36l-4.12-2.38A.71.71,0,0,0,246.94,367.34Zm28.74,2.44,4.31-2.49c.18-.1.2-.26,0-.36l-4.12-2.38a.68.68,0,0,0-.62,0L271,367.06c-.18.11-.2.27,0,.36l4.12,2.38A.67.67,0,0,0,275.68,369.78Zm58.73-52.94-4.31,2.49c-.18.1-.2.27,0,.36l4.12,2.38a.73.73,0,0,0,.63,0l4.31-2.49c.18-.11.2-.27,0-.36L335,316.82A.71.71,0,0,0,334.41,316.84Zm-7.62,4.4-4.31,2.49c-.18.1-.2.26,0,.36l4.12,2.38a.73.73,0,0,0,.63,0L331.5,324c.18-.11.2-.27,0-.36l-4.12-2.38A.71.71,0,0,0,326.79,321.24Zm13.91-8-4.3,2.48c-.19.11-.2.27,0,.37l4.12,2.37a.67.67,0,0,0,.63,0l4.3-2.48c.19-.11.2-.27,0-.37l-4.12-2.37A.67.67,0,0,0,340.7,313.21Zm-34.79,32.32,4.3-2.48c.19-.11.2-.27,0-.37l-4.12-2.38a.68.68,0,0,0-.62,0l-4.31,2.48c-.18.11-.2.27,0,.36l4.12,2.38A.67.67,0,0,0,305.91,345.53Zm41.71-36a.71.71,0,0,0-.62,0l-4.31,2.49c-.18.1-.2.27,0,.36l4.13,2.38a.71.71,0,0,0,.62,0l4.31-2.49c.18-.1.2-.27,0-.36ZM282,366.15l4.31-2.49c.19-.11.2-.27,0-.36l-4.12-2.38a.74.74,0,0,0-.63,0l-4.3,2.49c-.19.1-.2.27,0,.36l4.12,2.38A.71.71,0,0,0,282,366.15Zm77.2-44.57,4.31-2.49c.18-.11.2-.27,0-.36l-4.12-2.38a.67.67,0,0,0-.63,0l-4.31,2.49c-.18.1-.19.26,0,.36l4.12,2.38A.71.71,0,0,0,359.17,321.58Zm-12.18.23,4.31-2.49c.18-.1.2-.26,0-.36l-4.12-2.38a.7.7,0,0,0-.63,0l-4.31,2.48c-.18.11-.2.27,0,.36l4.12,2.38A.65.65,0,0,0,347,321.81Zm6.52-8.86a.71.71,0,0,0-.62,0l-4.31,2.49c-.18.1-.2.27,0,.36l4.12,2.38a.74.74,0,0,0,.63,0l4.3-2.49c.19-.11.2-.27,0-.36Zm1.33-.77,10,5.78a.67.67,0,0,0,.63,0l4.31-2.49c.18-.1.2-.26,0-.36l-10-5.77a.67.67,0,0,0-.63,0l-4.31,2.48C354.69,311.93,354.67,312.09,354.84,312.18Zm-14.55,8.06-4.3,2.49c-.19.1-.2.26,0,.36l4.12,2.38a.74.74,0,0,0,.63,0L345,323c.19-.11.2-.27,0-.36l-4.12-2.38A.7.7,0,0,0,340.29,320.24Zm-47.37,27.35-4.31,2.49c-.19.11-.2.27,0,.36l4.12,2.38a.67.67,0,0,0,.63,0l4.3-2.49c.19-.1.2-.26,0-.36l-4.12-2.38A.71.71,0,0,0,292.92,347.59Zm59.33-22.36a.67.67,0,0,0,.63,0l4.31-2.49c.18-.1.2-.26,0-.36L353.1,320a.71.71,0,0,0-.62,0l-4.31,2.49c-.18.11-.2.27,0,.36Zm-53,18.73-4.31,2.49c-.18.1-.2.26,0,.36l4.12,2.38a.71.71,0,0,0,.62,0l4.31-2.49c.18-.11.2-.27,0-.36l-4.12-2.38A.7.7,0,0,0,299.21,344Zm-49.34,40.38a.7.7,0,0,0,.63,0l4.31-2.49c.18-.1.2-.26,0-.36l-4.12-2.38a.71.71,0,0,0-.62,0l-4.31,2.49c-.18.11-.2.27,0,.36Zm-7.32-7.67-4.3,2.49c-.19.1-.2.27,0,.36l4.12,2.38a.74.74,0,0,0,.63,0l4.3-2.49c.19-.11.2-.27,0-.36l-4.12-2.38A.74.74,0,0,0,242.55,376.67Zm14.24,4,4.31-2.48c.18-.11.2-.27,0-.36L257,375.46a.67.67,0,0,0-.63,0L252.08,378c-.18.1-.2.26,0,.36l4.12,2.38A.68.68,0,0,0,256.79,380.68Zm6.3-3.63,4.31-2.49c.18-.1.2-.26,0-.36l-4.12-2.38a.71.71,0,0,0-.62,0l-4.31,2.49c-.18.11-.2.27,0,.36l4.12,2.38A.67.67,0,0,0,263.09,377.05Zm6.29-3.63,4.31-2.49c.18-.11.2-.27,0-.36l-4.12-2.38a.67.67,0,0,0-.63,0l-4.31,2.49c-.18.1-.19.26,0,.36l4.12,2.38A.71.71,0,0,0,269.38,373.42ZM248.85,373l-4.31,2.48c-.18.11-.2.27,0,.37l4.13,2.37a.65.65,0,0,0,.62,0l4.31-2.48c.18-.11.2-.27,0-.37L249.47,373A.65.65,0,0,0,248.85,373Zm6.29-3.64-4.3,2.49c-.19.1-.2.27,0,.36l4.12,2.38a.74.74,0,0,0,.63,0l4.3-2.49c.19-.1.2-.27,0-.36l-4.12-2.38A.74.74,0,0,0,255.14,369.4Zm25.18-14.54-4.3,2.49c-.19.11-.2.27,0,.36l4.12,2.38a.67.67,0,0,0,.63,0l4.3-2.49c.19-.1.2-.26,0-.36L281,354.84A.74.74,0,0,0,280.32,354.86ZM274,358.5,269.72,361c-.18.1-.2.26,0,.36l4.12,2.38a.68.68,0,0,0,.62,0l4.31-2.48c.18-.11.2-.27,0-.36l-4.12-2.38A.67.67,0,0,0,274,358.5Zm12.59-7.27-4.31,2.49c-.18.1-.2.26,0,.36l4.12,2.38a.71.71,0,0,0,.62,0l4.31-2.49c.18-.11.2-.27,0-.36l-4.12-2.38A.67.67,0,0,0,286.62,351.23Zm-25.18,14.54-4.31,2.48c-.18.11-.2.27,0,.37l4.13,2.37a.65.65,0,0,0,.62,0l4.31-2.48c.18-.11.2-.27,0-.36l-4.13-2.38A.65.65,0,0,0,261.44,365.77Zm6.29-3.64-4.3,2.49c-.19.11-.2.27,0,.36l4.12,2.38a.74.74,0,0,0,.63,0l4.3-2.49c.19-.1.2-.27,0-.36l-4.12-2.38A.74.74,0,0,0,267.73,362.13Zm-8,23.68,4.31-2.49c.18-.11.2-.27,0-.36l-4.12-2.38a.65.65,0,0,0-.62,0L255,383.09c-.18.1-.2.26,0,.36l4.12,2.38A.73.73,0,0,0,259.7,385.81Zm-33.2-1.57-4.12-2.38a.71.71,0,0,0-.62,0l-4.31,2.49c-.18.1-.2.26,0,.36l4.12,2.38a.73.73,0,0,0,.63,0l4.31-2.49C226.65,384.49,226.67,384.33,226.5,384.24Zm8.21,2.06-4.12-2.38a.7.7,0,0,0-.63,0l-6.62,3.83c-.19.1-.2.26,0,.36l4.12,2.38a.74.74,0,0,0,.63,0l6.62-3.83C234.86,386.55,234.87,386.39,234.71,386.3Zm-14.36-6.76-4.12-2.38a.71.71,0,0,0-.62,0l-5.31,3.06c-.18.11-.19.27,0,.36l4.12,2.38a.65.65,0,0,0,.62,0l5.31-3.06C220.5,379.8,220.52,379.63,220.35,379.54Zm4.07-2.35a.65.65,0,0,0,.62,0l4.31-2.49c.18-.1.2-.26,0-.36l-4.12-2.38a.7.7,0,0,0-.63,0l-4.31,2.48c-.18.11-.2.27,0,.36Zm17.83,11.55-4.12-2.38a.71.71,0,0,0-.62,0l-8.29,4.78c-.18.11-.2.27,0,.37l4.12,2.38a.68.68,0,0,0,.62,0l8.29-4.78C242.4,389,242.42,388.83,242.25,388.74Zm2.91,5.12L241,391.48a.73.73,0,0,0-.63,0l-5.3,3.06c-.18.11-.2.27,0,.37l4.12,2.37a.67.67,0,0,0,.63,0l5.3-3.06C245.3,394.12,245.32,394,245.16,393.86Zm26.06-43.69a.73.73,0,0,0,.63,0l4.3-2.49c.19-.1.2-.27,0-.36l-4.12-2.38a.71.71,0,0,0-.62,0l-4.31,2.49c-.18.11-.2.27,0,.36Zm-12.59,7.27a.74.74,0,0,0,.63,0l4.3-2.49c.19-.1.2-.27,0-.36l-4.12-2.38a.71.71,0,0,0-.62,0l-4.31,2.49c-.19.1-.2.27,0,.36Zm-27.92,16.12a.74.74,0,0,0,.63,0l4.3-2.49c.19-.1.2-.27,0-.36l-4.12-2.38a.71.71,0,0,0-.62,0l-4.31,2.49c-.18.1-.2.27,0,.36Zm34.22-19.76a.65.65,0,0,0,.62,0l4.31-2.48c.18-.11.2-.27,0-.36l-4.12-2.38a.67.67,0,0,0-.63,0l-4.31,2.48c-.18.11-.2.27,0,.37Zm-12.59,7.27a.65.65,0,0,0,.62,0l4.31-2.48c.18-.11.2-.27,0-.37l-4.12-2.37a.67.67,0,0,0-.63,0l-4.31,2.48c-.18.11-.2.27,0,.36Zm-4.09,33.05a.67.67,0,0,0-.63,0L241,398c-.19.11-.2.27,0,.36l4.12,2.38a.67.67,0,0,0,.63,0l6.62-3.82c.19-.11.2-.27,0-.37Zm-4.95-27.83a.74.74,0,0,0,.63,0l4.31-2.49c.18-.1.19-.27,0-.36L244.15,361a.71.71,0,0,0-.62,0l-4.31,2.49c-.18.1-.2.27,0,.36ZM237,369.92a.65.65,0,0,0,.62,0l4.31-2.48c.18-.11.2-.27,0-.36l-4.12-2.38a.67.67,0,0,0-.63,0l-4.31,2.48c-.18.11-.2.27,0,.37Zm127.87-43.14a.73.73,0,0,0-.63,0l-10.6,6.12c-.18.11-.2.27,0,.36l4.12,2.38a.67.67,0,0,0,.63,0l10.6-6.12c.18-.1.2-.27,0-.36Zm-13.92,8a.67.67,0,0,0-.63,0l-4.3,2.48c-.19.11-.2.27,0,.36l4.12,2.38a.67.67,0,0,0,.63,0l4.3-2.49c.19-.1.2-.26,0-.36Zm-85,47.35,4.31-2.49c.18-.1.2-.26,0-.36l-4.12-2.38a.73.73,0,0,0-.63,0l-4.31,2.49c-.18.11-.2.27,0,.36l4.12,2.38A.65.65,0,0,0,266,382.17Zm72.38-40.09a.7.7,0,0,0-.63,0l-4.3,2.48c-.19.11-.2.27,0,.36l4.12,2.38a.67.67,0,0,0,.63,0l4.3-2.49c.19-.1.2-.26,0-.36Zm32.8-18.93a.65.65,0,0,0-.62,0l-4.31,2.48c-.18.11-.2.27,0,.37l4.12,2.37a.67.67,0,0,0,.63,0l4.3-2.48c.19-.11.2-.27,0-.37Zm10.42-1.26-10-5.78a.74.74,0,0,0-.63,0l-4.3,2.49c-.19.11-.2.27,0,.36l10,5.78a.71.71,0,0,0,.62,0l4.31-2.49C381.73,322.15,381.75,322,381.59,321.89Zm-66.74,33.78a.67.67,0,0,0-.63,0l-5.3,3.06c-.18.1-.2.27,0,.36l4.12,2.38a.73.73,0,0,0,.63,0l5.3-3.06c.18-.11.2-.27,0-.37Zm15.9-9.19a.7.7,0,0,0-.63,0l-6.62,3.82c-.19.11-.2.27,0,.36l4.12,2.38a.67.67,0,0,0,.63,0l6.62-3.83c.19-.1.2-.26,0-.36Zm-30.48,17.6a.73.73,0,0,0-.63,0l-35.45,20.47c-.18.11-.2.27,0,.36l4.12,2.38a.67.67,0,0,0,.63,0l35.45-20.47c.18-.1.2-.26,0-.36ZM262.83,385.7a.67.67,0,0,0-.63,0l-5.3,3.06c-.18.11-.2.27,0,.36l4.12,2.38a.7.7,0,0,0,.63,0l5.3-3.06c.18-.11.2-.27,0-.36Zm44.73-25.83a.7.7,0,0,0-.63,0l-5.3,3.06c-.18.1-.2.26,0,.36l4.12,2.38a.73.73,0,0,0,.63,0l5.3-3.07c.18-.1.2-.26,0-.36Zm-52,30a.67.67,0,0,0-.63,0l-5.3,3.06c-.18.1-.2.27,0,.36l4.12,2.38a.73.73,0,0,0,.63,0l5.3-3.06c.18-.11.2-.27,0-.36Zm66.59-38.45a.65.65,0,0,0-.62,0l-5.3,3.06c-.18.1-.2.27,0,.36l4.12,2.38a.74.74,0,0,0,.63,0l5.3-3.06c.18-.11.2-.27,0-.36Zm22.54-13a.73.73,0,0,0-.63,0L339.73,341c-.18.1-.2.26,0,.36l4.12,2.38a.71.71,0,0,0,.62,0l4.31-2.49c.18-.11.2-.27,0-.36Zm14.1-9.84,4.3-2.49c.19-.1.2-.27,0-.36L359,323.38a.74.74,0,0,0-.63,0l-4.3,2.49c-.19.11-.2.27,0,.36l4.12,2.38A.74.74,0,0,0,358.77,328.61Zm-25.69,1.24,4.3-2.49c.19-.11.2-.27,0-.36l-4.12-2.38a.67.67,0,0,0-.63,0l-4.3,2.49c-.19.1-.2.26,0,.36l4.12,2.38A.74.74,0,0,0,333.08,329.85Zm-16.72,23.24L329,345.83c.18-.11.2-.27,0-.37l-4.12-2.38a.68.68,0,0,0-.62,0l-12.59,7.27c-.19.1-.2.26,0,.36l4.12,2.38A.7.7,0,0,0,316.36,353.09Zm35.48-20.83a.67.67,0,0,0,.63,0l4.31-2.48c.18-.11.2-.27,0-.36L352.69,327a.65.65,0,0,0-.62,0l-4.31,2.48c-.18.11-.2.27,0,.37Zm-5.26-3.42,4.31-2.48c.18-.11.2-.27,0-.36l-4.12-2.38a.67.67,0,0,0-.63,0l-4.31,2.49c-.18.1-.2.26,0,.36l4.12,2.38A.68.68,0,0,0,346.58,328.84Zm-36.52,27.89,4.31-2.49c.18-.1.2-.27,0-.36l-4.12-2.38a.71.71,0,0,0-.62,0L305.35,354c-.18.11-.2.27,0,.36l4.12,2.38A.73.73,0,0,0,310.06,356.73Zm27.87-16.43a.71.71,0,0,0,.62,0l4.31-2.49c.19-.1.2-.27,0-.36l-4.12-2.38a.74.74,0,0,0-.63,0l-4.3,2.49c-.19.1-.2.27,0,.36Zm-59.35,34.6,4.31-2.49c.18-.1.2-.26,0-.36l-4.12-2.38a.7.7,0,0,0-.63,0l-4.3,2.48c-.19.11-.2.27,0,.36l4.12,2.38A.65.65,0,0,0,278.58,374.9Zm6.3-3.63,4.31-2.49c.18-.11.2-.27,0-.36L285.1,366a.71.71,0,0,0-.62,0l-4.31,2.49c-.18.1-.2.27,0,.36l4.12,2.38A.73.73,0,0,0,284.88,371.27Zm-12.59,7.27,4.31-2.49c.18-.11.2-.27,0-.36l-4.12-2.38a.68.68,0,0,0-.62,0l-4.31,2.49c-.18.1-.2.26,0,.36l4.12,2.38A.73.73,0,0,0,272.29,378.54ZM297.47,364l4.31-2.49c.18-.1.2-.27,0-.36l-4.12-2.38a.71.71,0,0,0-.62,0l-4.31,2.49c-.18.1-.2.27,0,.36l4.12,2.38A.73.73,0,0,0,297.47,364Zm-6.3,3.63,4.31-2.48c.19-.11.2-.27,0-.37l-4.12-2.37a.67.67,0,0,0-.63,0l-4.3,2.48c-.19.11-.2.27,0,.36l4.12,2.38A.65.65,0,0,0,291.17,367.63Zm12.6-7.27,4.3-2.48c.19-.11.2-.27,0-.36L304,355.14a.67.67,0,0,0-.63,0l-4.3,2.48c-.19.11-.2.27,0,.37l4.12,2.38A.7.7,0,0,0,303.77,360.36Zm34.35-50.56a.65.65,0,0,0,.62,0l4.31-2.49c.18-.1.2-.26,0-.36l-1.1-.63a.65.65,0,0,0-.62,0l-4.31,2.49c-.18.1-.2.26,0,.36Zm-31.29,19.81a.65.65,0,0,0,.62,0l4.31-2.49c.18-.1.2-.26,0-.36l-4.12-2.38a.7.7,0,0,0-.63,0l-4.3,2.48c-.19.11-.2.27,0,.36Zm12.59-7.27a.67.67,0,0,0,.63,0l4.3-2.48c.19-.11.2-.27,0-.37l-4.12-2.38a.7.7,0,0,0-.63,0l-4.3,2.48c-.19.11-.2.27,0,.36Zm-20.28,11.71a.74.74,0,0,0,.63,0l4.31-2.49c.18-.1.19-.27,0-.36L300,328.8a.71.71,0,0,0-.62,0l-4.31,2.49c-.18.11-.2.27,0,.36Zm14-8.07a.73.73,0,0,0,.63,0l4.31-2.49c.18-.11.2-.27,0-.36L314,320.73a.71.71,0,0,0-.62,0L309,323.24c-.18.1-.2.26,0,.36Zm-26.57,15.34a.74.74,0,0,0,.63,0l4.3-2.49c.19-.1.2-.27,0-.36l-4.12-2.38a.71.71,0,0,0-.62,0l-4.31,2.49c-.19.11-.2.27,0,.36Zm6.3-3.63a.68.68,0,0,0,.62,0l4.31-2.48c.18-.11.2-.27,0-.36l-4.12-2.38a.67.67,0,0,0-.63,0l-4.31,2.48c-.18.11-.2.27,0,.37Zm32.68-20.62a.71.71,0,0,0,.62,0l4.31-2.49c.18-.1.2-.26,0-.36l-1.1-.63a.65.65,0,0,0-.62,0l-4.31,2.49c-.18.1-.2.26,0,.36Zm18.88-10.9a.73.73,0,0,0,.63,0l4.31-2.49c.18-.11.2-.27,0-.36l-1.09-.64a.7.7,0,0,0-.63,0l-4.31,2.48c-.18.11-.2.27,0,.36Zm8.66,5a.67.67,0,0,0,.63,0l4.3-2.48c.19-.11.2-.27,0-.36l-4.12-2.38a.67.67,0,0,0-.63,0l-4.3,2.48c-.19.11-.2.27,0,.37Zm12,13.81,4.31-2.48c.18-.11.2-.27,0-.36l-4.13-2.38a.65.65,0,0,0-.62,0l-4.31,2.49c-.18.1-.2.26,0,.36l4.13,2.38A.68.68,0,0,0,365.06,325Zm-33.24-11.53a.7.7,0,0,0,.63,0l4.31-2.48c.18-.11.2-.27,0-.36l-1.09-.64a.73.73,0,0,0-.63,0l-4.31,2.49c-.18.11-.2.27,0,.36ZM280.26,345a.65.65,0,0,0,.62,0l4.31-2.48c.18-.11.2-.27,0-.37l-4.12-2.37a.67.67,0,0,0-.63,0l-4.31,2.48c-.18.11-.2.27,0,.36Z" style="fill:#455a64"></path><polygon points="298.29 380.78 299.22 381.32 324.1 395.68 368.34 370.14 369.26 369.61 343.45 354.71 298.29 380.78" style="fill:#263238"></polygon><polygon points="367.77 370.46 343.45 356.43 299.79 381.65 324.1 395.68 367.77 370.46" style="fill:#37474f"></polygon></g></g><g id="freepik--screen-2--inject-106"><g id="freepik--window--inject-106"><g id="freepik--window--inject-106"><path d="M187.9,268.19A4.29,4.29,0,0,1,186,264.8v-11a4.41,4.41,0,0,1,2-3.46l127.76-73.84a3.76,3.76,0,0,1,5.75,3.32v11a4.38,4.38,0,0,1-2,3.46L191.77,268.12A4.26,4.26,0,0,1,187.9,268.19Z" style="fill:#e0e0e0"></path><path d="M190.36,254a4.07,4.07,0,0,0-.58,2v6L186,259.87v-6a1.93,1.93,0,0,1,0-.24,3.73,3.73,0,0,1,.08-.5,4.55,4.55,0,0,1,.5-1.24Z" style="opacity:0.15"></path><path d="M321.53,179.86v6l-69.75,40.34-56.5,32.62-5.5,3.18v-6a4.43,4.43,0,0,1,2-3.46l127.76-73.83C320.63,178.07,321.53,178.59,321.53,179.86Z" style="fill:#f0f0f0"></path><path d="M316.06,183.65c.71-.41,1.29-.08,1.29.75a2.85,2.85,0,0,1-1.29,2.23c-.72.42-1.3.08-1.3-.74A2.84,2.84,0,0,1,316.06,183.65Z" style="fill:#fff"></path><path d="M311.4,186.33c.72-.41,1.3-.08,1.3.75a2.87,2.87,0,0,1-1.3,2.24c-.71.41-1.29.07-1.29-.75A2.87,2.87,0,0,1,311.4,186.33Z" style="fill:#fff"></path><path d="M306.75,189c.72-.41,1.3-.07,1.3.75a2.85,2.85,0,0,1-1.3,2.24c-.71.41-1.29.07-1.29-.75A2.89,2.89,0,0,1,306.75,189Z" style="fill:#fff"></path><path d="M191.77,350.66a3.49,3.49,0,0,1-1.57.48,4,4,0,0,1-2.3-.4,4.28,4.28,0,0,1-1.87-3.39V259.87l3.76,2.17v87.47c0,.9.45,1.43,1.11,1.43A1.91,1.91,0,0,0,191.77,350.66Z" style="fill:#e0e0e0"></path><path d="M190.88,350.69c-.54,0-.86-.44-.86-1.18V262.18l61.88-35.72,69.38-40.14v87.05a4.16,4.16,0,0,1-1.87,3.25L191.65,350.45A1.56,1.56,0,0,1,190.88,350.69Z" style="fill:#fafafa"></path><path d="M321,186.75v86.62a3.91,3.91,0,0,1-1.75,3L191.52,350.24a1.35,1.35,0,0,1-.64.2c-.55,0-.61-.65-.61-.93V262.32l5.26-3L252,226.67l69-39.92m.5-.85-69.75,40.34-56.5,32.62-5.5,3.18v87.47c0,.9.45,1.43,1.1,1.43a1.76,1.76,0,0,0,.89-.28l127.76-73.83a4.41,4.41,0,0,0,2-3.46V185.9Z" style="fill:#e0e0e0"></path></g><polygon points="316.17 233.49 195.11 303.38 195.11 276.9 316.17 207.01 316.17 233.49" style="fill:#f0f0f0"></polygon><path d="M314.84,273.26l-27.92,16.12c-.71.41-1.29,0-1.29-1v-30a3.08,3.08,0,0,1,1.29-2.46l27.92-16.12c.71-.41,1.29,0,1.29,1v30A3.08,3.08,0,0,1,314.84,273.26Z" style="fill:#e0e0e0"></path><path d="M314.84,273.26l-27.92,16.12c-.71.41-1.29,0-1.29-1v-30a3.08,3.08,0,0,1,1.29-2.46l27.92-16.12c.71-.41,1.29,0,1.29,1v30A3.08,3.08,0,0,1,314.84,273.26Z" style="opacity:0.05"></path><polygon points="287.79 285.55 287.79 276.3 295.61 260.12 304.6 267.94 302.48 263.68 307.25 255.36 313.97 260.94 313.97 270.43 287.79 285.55" style="fill:#fafafa"></polygon><ellipse cx="302.13" cy="255.04" rx="3.01" ry="1.61" transform="matrix(0.29, -0.96, 0.96, 0.29, -30.33, 469.04)" style="fill:#fafafa"></ellipse><path d="M269.66,299.35l-27.93,16.12c-.71.41-1.29,0-1.29-1v-30a3.08,3.08,0,0,1,1.29-2.46l27.93-16.12c.71-.41,1.28,0,1.28,1v30A3.09,3.09,0,0,1,269.66,299.35Z" style="fill:#e0e0e0"></path><polygon points="242.61 311.63 242.61 302.39 250.42 286.21 259.42 294.03 257.29 289.77 262.07 281.45 268.78 287.03 268.78 296.52 242.61 311.63" style="fill:#fafafa"></polygon><path d="M258.72,280.1a4.65,4.65,0,0,1-1.77,3.75c-1,.57-1.77-.2-1.77-1.7A4.65,4.65,0,0,1,257,278.4C257.93,277.83,258.72,278.59,258.72,280.1Z" style="fill:#fafafa"></path><path d="M224.47,325.43l-27.92,16.13c-.71.41-1.29,0-1.29-1v-30a3.08,3.08,0,0,1,1.29-2.46L224.47,292c.71-.41,1.29,0,1.29,1v30A3.08,3.08,0,0,1,224.47,325.43Z" style="fill:#f0f0f0"></path><polygon points="197.42 337.72 197.42 328.48 205.24 312.3 214.23 320.12 212.11 315.86 216.88 307.54 223.6 313.11 223.6 322.61 197.42 337.72" style="fill:#fafafa"></polygon><path d="M213.54,306.19a4.66,4.66,0,0,1-1.78,3.75c-1,.57-1.77-.2-1.77-1.71a4.71,4.71,0,0,1,1.77-3.75C212.74,303.92,213.54,304.68,213.54,306.19Z" style="fill:#fafafa"></path><polygon points="316.17 201.04 301.28 209.63 301.28 204.08 316.17 195.49 316.17 201.04" style="fill:#e0e0e0"></polygon><polygon points="300.59 210.03 285.7 218.63 285.7 213.08 300.59 204.48 300.59 210.03" style="fill:#e0e0e0"></polygon><polygon points="285.01 219.03 270.12 227.62 270.12 222.07 285.01 213.47 285.01 219.03" style="fill:#e0e0e0"></polygon><polygon points="210 262.33 195.11 270.93 195.11 265.38 210 256.78 210 262.33" style="fill:#e0e0e0"></polygon></g><g id="freepik--check-mark--inject-106"><ellipse cx="253.59" cy="263.5" rx="27.24" ry="15.41" transform="translate(-88.16 393.67) rotate(-66.95)" style="fill:#fff"></ellipse><path d="M246.53,290a9.78,9.78,0,0,1-4.93-1.29c-4.14-2.39-6.51-7.86-6.51-15,0-13.28,8.13-28.79,18.12-34.55,4.51-2.61,8.9-2.94,12.37-.94,4.14,2.39,6.51,7.86,6.51,15,0,13.29-8.13,28.79-18.12,34.56A15.07,15.07,0,0,1,246.53,290Zm14.11-51.57a13.52,13.52,0,0,0-6.67,2c-9.58,5.53-17.37,20.45-17.37,33.25,0,6.59,2.1,11.59,5.76,13.7,3,1.72,6.83,1.38,10.85-.94,9.58-5.53,17.37-20.44,17.37-33.25,0-6.59-2.1-11.58-5.76-13.69A8.2,8.2,0,0,0,260.64,238.47Z" style="fill:#4FEB7B"></path><polygon points="249.37 278.98 242.37 273.69 245.39 267.92 249.1 270.72 261.52 247.01 264.81 249.49 249.37 278.98" style="fill:#4FEB7B"></polygon></g></g><g id="freepik--device-1--inject-106"><g id="freepik--Mobile--inject-106"><path d="M153.48,401.39V264.57c0-3.57.33-4.77-1.65-6.25a6.11,6.11,0,0,0-6.4-.17l-57.23,33a8.94,8.94,0,0,0-4,7V436.8a4.82,4.82,0,0,0,2.75,4.66,4.64,4.64,0,0,0,5.3,0l57.23-33A7.61,7.61,0,0,0,153.48,401.39Z" style="fill:#37474f"></path><path d="M149.84,402.7,91,436.68l0-139.2-5.67-3.26a8.25,8.25,0,0,0-1.19,4V436.8a4.82,4.82,0,0,0,2.75,4.66,4.64,4.64,0,0,0,5.3,0l57.23-33a7.75,7.75,0,0,0,3.51-3.91l-.23-.14Z" style="fill:#263238"></path><path d="M149.33,261.59l-57.4,33.14a6.31,6.31,0,0,0-2.84,4.92V437.12c0,2.77,2,3.9,4.37,2.51l55.87-32.25a7.13,7.13,0,0,0,3.21-5.57V263.45C152.54,261.41,151.1,260.57,149.33,261.59Z" style="fill:#455a64"></path><path d="M149.74,270v128.5a6.76,6.76,0,0,1-3.05,5.3L94.94,433.7c-1.68,1-3,.19-3-1.76V302.49A6.88,6.88,0,0,1,94,297.88l.29-.26a4.83,4.83,0,0,1,.62-.42l14.56-8.41s.42-.25,1-.54,1-.07,1,.54.45.84,1,.51l17-9.79a2.16,2.16,0,0,0,1-1.68,2.15,2.15,0,0,1,.85-1.59l.09-.06L145.57,268l.3-.18C148,266.56,149.74,267.56,149.74,270Z"></path><path d="M142.25,400.39a6.76,6.76,0,0,0,3.05-5.3v-127l-14,8.06-.09.06a2.15,2.15,0,0,0-.85,1.59,2.16,2.16,0,0,1-1,1.68l-17,9.79c-.56.33-1,.1-1-.51s-.43-.85-1-.54-1,.54-1,.54L94.94,297.2a4.83,4.83,0,0,0-.62.42l-.29.26a6.88,6.88,0,0,0-2.14,4.61v127Z" style="fill:#fff"></path><path d="M115,284.13l7.77-4.49c.46-.27.84-.08.84.43a1.81,1.81,0,0,1-.84,1.39L115,286c-.47.27-.84.08-.84-.43A1.78,1.78,0,0,1,115,284.13Z" style="fill:#263238"></path><path d="M126.75,277c.52-.3,1-.06,1,.54a2.09,2.09,0,0,1-1,1.64c-.52.31-1,.06-1-.54A2.09,2.09,0,0,1,126.75,277Z" style="fill:#263238"></path><path d="M87.77,313.85a3.42,3.42,0,0,0-1.5-2.71,1,1,0,0,0-1-.08l-1.13.64a1.18,1.18,0,0,0-.46,1.06v11.29a3.42,3.42,0,0,0,1.5,2.71,1,1,0,0,0,1,.1c.2-.1,1-.54,1.15-.66a1.16,1.16,0,0,0,.47-1.06Z" style="fill:#455a64"></path><path d="M86.65,314.49v11.29c0,1-.67,1.46-1.49,1a3.42,3.42,0,0,1-1.5-2.71V312.76c0-1,.67-1.45,1.5-1A3.44,3.44,0,0,1,86.65,314.49Z" style="fill:#37474f"></path><path d="M87.77,333.61a3.39,3.39,0,0,0-1.5-2.7,1,1,0,0,0-1-.09c-.19.12-.93.53-1.13.64a1.19,1.19,0,0,0-.46,1.07v11.29a3.39,3.39,0,0,0,1.5,2.7,1,1,0,0,0,1,.11L87.3,346a1.17,1.17,0,0,0,.47-1.07Z" style="fill:#455a64"></path><path d="M86.65,334.25v11.3c0,1-.67,1.45-1.49,1a3.39,3.39,0,0,1-1.5-2.7V332.53c0-1,.67-1.46,1.5-1A3.44,3.44,0,0,1,86.65,334.25Z" style="fill:#37474f"></path></g></g><g id="freepik--screen-1--inject-106"><g id="freepik--window--inject-106"><g id="freepik--window--inject-106"><path d="M153.07,270.4a2.76,2.76,0,0,0-2.77.27l-.31.18-14.45,8.34-.1.07a2.17,2.17,0,0,0-.86,1.61,2.23,2.23,0,0,1-1,1.7l-17.22,9.94,0,0a.66.66,0,0,0-.28-.59l-1-.57a.66.66,0,0,0-.68.07l-1,.55L98.6,300.52A6,6,0,0,0,98,301l-.29.26a6.93,6.93,0,0,0-2.18,4.68V419.21a2.21,2.21,0,0,0,.9,2l1,.58a2.18,2.18,0,0,0,2.19-.23l52.52-30.32a6.86,6.86,0,0,0,3.1-5.38V273.51a2.77,2.77,0,0,0-1.14-2.53Z" style="fill:#e0e0e0"></path><path d="M99.89,421.15v.25l-.29.17a2.18,2.18,0,0,1-2.19.23l-1-.58a2.17,2.17,0,0,1-.91-2V305.9a6.45,6.45,0,0,1,1.07-3.32l1.18.69a6.3,6.3,0,0,0-1,3.2V419.79a2.38,2.38,0,0,0,.43,1.49,1.31,1.31,0,0,0,1.07.5,2.66,2.66,0,0,0,1.28-.4Z" style="opacity:0.15"></path><path d="M136.15,280.44a1.83,1.83,0,0,0-.36,1,2.19,2.19,0,0,1-.38,1.16l-1.19-.69a2,2,0,0,0,.36-1,2.05,2.05,0,0,1,.39-1.12Z" style="opacity:0.15"></path><path d="M98.21,421.78a1.31,1.31,0,0,1-1.07-.5,2.38,2.38,0,0,1-.42-1.49V306.47a6.72,6.72,0,0,1,2.1-4.51l.1-.09a1.54,1.54,0,0,1,.19-.17,3.76,3.76,0,0,1,.6-.41l14.77-8.53,1-.56a.77.77,0,0,1,.33-.1c.28,0,.31.33.31.47a.79.79,0,0,0,.76.89,1.21,1.21,0,0,0,.6-.18l17.21-9.94a2.43,2.43,0,0,0,1.14-1.9,2,2,0,0,1,.77-1.43l.09-.05,14.45-8.34.31-.18a3.35,3.35,0,0,1,1.63-.51c1.21,0,2,1,2,2.58V385.87a6.62,6.62,0,0,1-3,5.19L99.49,421.38A2.63,2.63,0,0,1,98.21,421.78Z" style="fill:#fafafa"></path><path d="M153,271.16h0c1.09,0,1.74.88,1.74,2.35V385.87a6.48,6.48,0,0,1-2.88,5L99.37,421.19a2.37,2.37,0,0,1-1.16.37c-.8,0-1.27-.66-1.27-1.77V306.47a6.5,6.5,0,0,1,2-4.35l.1-.09.17-.15a4,4,0,0,1,.58-.4L114.59,293l1-.56a.47.47,0,0,1,.21-.07c.08,0,.09.22.09.25a1,1,0,0,0,1,1.11,1.41,1.41,0,0,0,.71-.21l17.22-9.94a2.68,2.68,0,0,0,1.25-2.09,1.73,1.73,0,0,1,.67-1.25l.07,0,14.45-8.34.31-.18a3.1,3.1,0,0,1,1.52-.47m0-.45a3.45,3.45,0,0,0-1.74.54l-.31.18-14.45,8.34-.1.06a2.17,2.17,0,0,0-.87,1.61,2.22,2.22,0,0,1-1,1.71l-17.21,9.93a.94.94,0,0,1-.49.16c-.32,0-.54-.25-.54-.67s-.22-.69-.53-.69a.91.91,0,0,0-.44.13l-1,.56L99.6,301.1a4.38,4.38,0,0,0-.63.43l-.3.27a6.91,6.91,0,0,0-2.18,4.67V419.79c0,1.4.7,2.21,1.72,2.21a2.79,2.79,0,0,0,1.39-.42l52.52-30.33a6.86,6.86,0,0,0,3.1-5.38V273.51c0-1.77-.89-2.8-2.18-2.8Z" style="fill:#e0e0e0"></path></g><path d="M153,270.93a3.35,3.35,0,0,0-1.63.51l-.31.18L136.65,280l-.09.05a2,2,0,0,0-.77,1.43,2.43,2.43,0,0,1-1.14,1.9l-17.21,9.94a1.21,1.21,0,0,1-.6.18.79.79,0,0,1-.76-.89c0-.14,0-.47-.31-.47a.77.77,0,0,0-.33.1l-1,.56-14.77,8.53a3.76,3.76,0,0,0-.6.41,1.54,1.54,0,0,0-.19.17l-.1.09a6.72,6.72,0,0,0-2.1,4.51v18.82L155,291.63V273.51C155,271.92,154.25,270.93,153,270.93Z" style="fill:#f0f0f0"></path><path d="M122.42,401.55l-19.35,11.17c-.49.28-.89,0-.89-.67V391.26a2.14,2.14,0,0,1,.89-1.7l19.35-11.17c.49-.28.89,0,.89.67v20.79A2.14,2.14,0,0,1,122.42,401.55Z" style="fill:#e0e0e0"></path><path d="M122.42,401.55l-19.35,11.17c-.49.28-.89,0-.89-.67V391.26a2.14,2.14,0,0,1,.89-1.7l19.35-11.17c.49-.28.89,0,.89.67v20.79A2.14,2.14,0,0,1,122.42,401.55Z" style="opacity:0.05"></path><polygon points="103.68 410.06 103.68 403.66 109.09 392.45 115.32 397.87 113.85 394.92 117.16 389.15 121.81 393.01 121.81 399.59 103.68 410.06" style="fill:#fafafa"></polygon><path d="M114.84,388.22a3.24,3.24,0,0,1-1.23,2.6c-.68.39-1.23-.14-1.23-1.18a3.23,3.23,0,0,1,1.23-2.6C114.29,386.64,114.84,387.17,114.84,388.22Z" style="fill:#fafafa"></path><path d="M122.42,375.7l-19.35,11.17c-.49.28-.89,0-.89-.68V365.41a2.16,2.16,0,0,1,.89-1.71l19.35-11.17c.49-.28.89,0,.89.68V374A2.16,2.16,0,0,1,122.42,375.7Z" style="fill:#e0e0e0"></path><polygon points="103.68 384.21 103.68 377.8 109.09 366.59 115.32 372.01 113.85 369.06 117.16 363.3 121.81 367.16 121.81 373.74 103.68 384.21" style="fill:#fafafa"></polygon><path d="M114.84,362.36a3.23,3.23,0,0,1-1.23,2.6c-.68.39-1.23-.14-1.23-1.18a3.24,3.24,0,0,1,1.23-2.6C114.29,360.79,114.84,361.32,114.84,362.36Z" style="fill:#fafafa"></path><path d="M122.42,349.27l-19.35,11.17c-.49.29-.89,0-.89-.67V339a2.16,2.16,0,0,1,.89-1.71l19.35-11.17c.49-.28.89,0,.89.68v20.78A2.14,2.14,0,0,1,122.42,349.27Z" style="fill:#f0f0f0"></path><polygon points="103.68 357.78 103.68 351.38 109.09 340.17 115.32 345.59 113.85 342.64 117.16 336.87 121.81 340.74 121.81 347.31 103.68 357.78" style="fill:#fafafa"></polygon><path d="M114.84,335.94a3.24,3.24,0,0,1-1.23,2.6c-.68.39-1.23-.14-1.23-1.18a3.23,3.23,0,0,1,1.23-2.6C114.29,334.37,114.84,334.89,114.84,335.94Z" style="fill:#fafafa"></path><polygon points="147.9 305.82 134.91 313.32 134.91 308.48 147.9 300.98 147.9 305.82" style="fill:#e0e0e0"></polygon><polygon points="132.35 314.8 119.37 322.29 119.37 317.45 132.35 309.96 132.35 314.8" style="fill:#e0e0e0"></polygon><polygon points="116.81 323.77 103.82 331.27 103.82 326.43 116.81 318.94 116.81 323.77" style="fill:#e0e0e0"></polygon><polygon points="115.38 306.18 102.4 313.67 102.4 308.83 115.38 301.33 115.38 306.18" style="fill:#e0e0e0"></polygon><path d="M145.4,320.65l-17.67,10.2c-.39.23-.7,0-.7-.52v-.14a1.68,1.68,0,0,1,.7-1.34l17.67-10.2c.39-.22.7,0,.7.53v.14A1.66,1.66,0,0,1,145.4,320.65Z" style="fill:#e0e0e0"></path><path d="M127.39,334.42a.33.33,0,0,1-.31-.18.36.36,0,0,1,.13-.49l22.84-13.19a.36.36,0,0,1,.49.13.37.37,0,0,1-.13.5l-22.84,13.18A.31.31,0,0,1,127.39,334.42Z" style="fill:#e0e0e0"></path><path d="M127.39,337.25a.33.33,0,0,1-.31-.18.36.36,0,0,1,.13-.49l22.84-13.19a.36.36,0,0,1,.36.62L127.57,337.2A.31.31,0,0,1,127.39,337.25Z" style="fill:#e0e0e0"></path><path d="M127.39,340.08a.35.35,0,0,1-.31-.18.36.36,0,0,1,.13-.49l22.84-13.19a.36.36,0,1,1,.36.62L127.57,340A.41.41,0,0,1,127.39,340.08Z" style="fill:#e0e0e0"></path><path d="M127.39,342.91a.35.35,0,0,1-.31-.18.37.37,0,0,1,.13-.5l22.84-13.18a.36.36,0,0,1,.36.62l-22.84,13.19A.41.41,0,0,1,127.39,342.91Z" style="fill:#e0e0e0"></path><path d="M145.4,346.83,127.73,357c-.39.23-.7,0-.7-.53v-.13a1.66,1.66,0,0,1,.7-1.34l17.67-10.2c.39-.23.7,0,.7.53v.13A1.66,1.66,0,0,1,145.4,346.83Z" style="fill:#e0e0e0"></path><path d="M127.39,360.6a.33.33,0,0,1-.31-.18.36.36,0,0,1,.13-.49l22.84-13.19a.36.36,0,0,1,.36.62l-22.84,13.19A.31.31,0,0,1,127.39,360.6Z" style="fill:#e0e0e0"></path><path d="M127.39,363.43a.35.35,0,0,1-.31-.18.36.36,0,0,1,.13-.49l22.84-13.19a.36.36,0,0,1,.36.62l-22.84,13.19A.41.41,0,0,1,127.39,363.43Z" style="fill:#e0e0e0"></path><path d="M127.39,366.26a.35.35,0,0,1-.31-.18.37.37,0,0,1,.13-.5l22.84-13.18a.36.36,0,0,1,.36.62l-22.84,13.19A.41.41,0,0,1,127.39,366.26Z" style="fill:#e0e0e0"></path><path d="M127.39,369.08a.33.33,0,0,1-.31-.18.36.36,0,0,1,.13-.49l22.84-13.19a.36.36,0,0,1,.36.63L127.57,369A.39.39,0,0,1,127.39,369.08Z" style="fill:#e0e0e0"></path><path d="M145.4,373l-17.67,10.2c-.39.22-.7,0-.7-.53v-.14a1.66,1.66,0,0,1,.7-1.33L145.4,371c.39-.23.7,0,.7.52v.14A1.68,1.68,0,0,1,145.4,373Z" style="fill:#e0e0e0"></path><path d="M127.39,386.78a.35.35,0,0,1-.31-.18.36.36,0,0,1,.13-.49l22.84-13.19a.36.36,0,0,1,.36.62l-22.84,13.19A.41.41,0,0,1,127.39,386.78Z" style="fill:#e0e0e0"></path><path d="M127.39,389.61a.35.35,0,0,1-.31-.18.37.37,0,0,1,.13-.5l22.84-13.18a.36.36,0,0,1,.36.62l-22.84,13.19A.41.41,0,0,1,127.39,389.61Z" style="fill:#e0e0e0"></path><path d="M127.39,392.43a.33.33,0,0,1-.31-.18.36.36,0,0,1,.13-.49l22.84-13.19a.36.36,0,0,1,.36.63l-22.84,13.19A.39.39,0,0,1,127.39,392.43Z" style="fill:#e0e0e0"></path><path d="M127.39,395.26a.33.33,0,0,1-.31-.18.36.36,0,0,1,.13-.49l22.84-13.19a.36.36,0,0,1,.49.13.37.37,0,0,1-.13.5l-22.84,13.18A.31.31,0,0,1,127.39,395.26Z" style="fill:#e0e0e0"></path></g><g id="freepik--check-mark--inject-106"><ellipse cx="125.86" cy="346.36" rx="17.35" ry="9.81" transform="translate(-242.13 326.55) rotate(-66.95)" style="fill:#fff"></ellipse><path d="M121.37,363.26a6.19,6.19,0,0,1-3.14-.82c-2.64-1.52-4.15-5-4.15-9.56,0-8.46,5.17-18.33,11.54-22,2.87-1.65,5.67-1.87,7.87-.59,2.64,1.52,4.15,5,4.15,9.55,0,8.47-5.18,18.34-11.54,22A9.48,9.48,0,0,1,121.37,363.26Zm9-32.84a8.58,8.58,0,0,0-4.25,1.29c-6.1,3.52-11.06,13-11.06,21.17,0,4.2,1.34,7.38,3.67,8.72,1.89,1.1,4.35.89,6.91-.59,6.1-3.52,11.06-13,11.06-21.18,0-4.19-1.34-7.37-3.67-8.72A5.28,5.28,0,0,0,130.35,330.42Z" style="fill:#4FEB7B"></path><polygon points="123.17 356.22 118.72 352.85 120.64 349.17 123 350.96 130.91 335.86 133 337.44 123.17 356.22" style="fill:#4FEB7B"></polygon></g></g><g id="freepik--Plants--inject-106"><g id="freepik--plants--inject-106"><path d="M56,428.28l8.06-4.65s4.79-19.92,2.88-37.85c-2.68-25.2-19.27-34.68-25.58-32.51s-8.14,9.51,2.3,24.52C49.85,386.64,57.41,405.09,56,428.28Z" style="fill:#4FEB7B"></path><g style="opacity:0.65"><path d="M56,428.28l8.06-4.65s4.79-19.92,2.88-37.85c-2.68-25.2-19.27-34.68-25.58-32.51s-8.14,9.51,2.3,24.52C49.85,386.64,57.41,405.09,56,428.28Z" style="fill:#fff"></path></g><path d="M59.37,418.5h-.08a.56.56,0,0,1-.44-.66c4.42-23.24-3.71-49.36-13.76-60.23a.56.56,0,1,1,.82-.76c10.24,11.07,18.52,37.61,14,61.2A.58.58,0,0,1,59.37,418.5Z" style="fill:#fff"></path><path d="M35.76,440c-1.2.61-4.4-2.13-5.3-2.8A11.16,11.16,0,0,1,27,432.75a10.48,10.48,0,0,1-.62-6.33,25,25,0,0,1,1-3.3c.36-1.07.73-2.13,1.09-3.2a8.14,8.14,0,0,0,.64-3.24c-.17-2.24-2.06-3.89-3.78-5.32-1.9-1.58-3.87-3.64-3.72-6.31a9.36,9.36,0,0,1,2.63-5.47c1.36-1.55,2.95-2.9,4.19-4.55A6.59,6.59,0,0,0,29.92,391a6.87,6.87,0,0,0-.77-2.64A36.93,36.93,0,0,1,26.57,383c-.55-1.9-.34-4.22,1.18-5.48a6.1,6.1,0,0,1,4.65-.91,10.37,10.37,0,0,1,4.2,1.72c4.12,2.57,6.28,7.71,10.69,9.75a44.44,44.44,0,0,0,5.38,1.6A6.74,6.74,0,0,1,57,393c1.49,3.38-1.78,7.29-.8,10.85.87,3.15,3.82,4.49,5.37,7.37a6.59,6.59,0,0,1,.59,4.09A19.65,19.65,0,0,1,60.1,422,60.22,60.22,0,0,1,56,428.28Z" style="fill:#4FEB7B"></path><g style="opacity:0.30000000000000004"><path d="M35.76,440c-1.2.61-4.4-2.13-5.3-2.8A11.16,11.16,0,0,1,27,432.75a10.48,10.48,0,0,1-.62-6.33,25,25,0,0,1,1-3.3c.36-1.07.73-2.13,1.09-3.2a8.14,8.14,0,0,0,.64-3.24c-.17-2.24-2.06-3.89-3.78-5.32-1.9-1.58-3.87-3.64-3.72-6.31a9.36,9.36,0,0,1,2.63-5.47c1.36-1.55,2.95-2.9,4.19-4.55A6.59,6.59,0,0,0,29.92,391a6.87,6.87,0,0,0-.77-2.64A36.93,36.93,0,0,1,26.57,383c-.55-1.9-.34-4.22,1.18-5.48a6.1,6.1,0,0,1,4.65-.91,10.37,10.37,0,0,1,4.2,1.72c4.12,2.57,6.28,7.71,10.69,9.75a44.44,44.44,0,0,0,5.38,1.6A6.74,6.74,0,0,1,57,393c1.49,3.38-1.78,7.29-.8,10.85.87,3.15,3.82,4.49,5.37,7.37a6.59,6.59,0,0,1,.59,4.09A19.65,19.65,0,0,1,60.1,422,60.22,60.22,0,0,1,56,428.28Z" style="fill:#fff"></path></g><path d="M47.42,433.91h0a.54.54,0,0,1-.49-.58c1.93-20.9-6.78-44.53-13.62-51.61a.53.53,0,0,1,0-.75.52.52,0,0,1,.74,0c7,7.23,15.87,31.25,13.91,52.45A.52.52,0,0,1,47.42,433.91Z" style="fill:#fff"></path><path d="M45.34,408.13l-.15,0a71.32,71.32,0,0,0-15.08-3.22.53.53,0,0,1-.48-.57.52.52,0,0,1,.57-.48,72.22,72.22,0,0,1,15.35,3.28.53.53,0,0,1,.32.67A.54.54,0,0,1,45.34,408.13Z" style="fill:#fff"></path></g></g><g id="freepik--Target--inject-106"><g id="freepik--target--inject-106"><g id="freepik--target--inject-106"><path d="M352.7,35.85c-7.37-4.27-17.57-3.67-28.83,2.84-22.52,13-40.77,44.61-40.77,70.61,0,13,4.61,22.2,12,26.43,1.93,1.11,6.07,3.64,8,4.77,7.38,4.27,17.57,3.66,28.83-2.84,22.51-13,40.76-44.62,40.76-70.62,0-13-4.56-22.12-11.93-26.38" style="fill:#4FEB7B"></path><path d="M283.1,109.3h0c0,13,4.61,22.2,12,26.43,1.93,1.11,6.07,3.64,8,4.77,7.38,4.26,17.57,3.66,28.82-2.84Z" style="opacity:0.65"></path><path d="M289.05,81.37c-3.77,9.32-5.95,19-5.95,27.93L332,137.66h0a75.71,75.71,0,0,0,21.21-19.12Z" style="opacity:0.55"></path><path d="M353.18,118.54c11.72-15,19.55-34.47,19.55-51.5,0-13-4.56-22.12-11.93-26.38l-8.1-4.81c-7.37-4.27-17.57-3.67-28.83,2.84-14.75,8.51-27.66,25-34.82,42.68Z" style="opacity:0.4"></path><path d="M332,43.5c-22.51,13-40.76,44.62-40.76,70.62s18.25,36.54,40.77,23.54S372.75,93,372.73,67,354.46,30.5,332,43.5Z" style="fill:#4FEB7B"></path><path d="M332,43.5c-22.51,13-40.76,44.62-40.76,70.62s18.25,36.54,40.77,23.54S372.75,93,372.73,67,354.46,30.5,332,43.5Z" style="opacity:0.2"></path><path d="M332,55.26c-16.89,9.76-30.58,33.47-30.58,53s13.7,27.41,30.59,17.65,30.58-33.47,30.58-53S348.85,45.51,332,55.26Z" style="fill:#fafafa"></path><path d="M332,66c-11.77,6.79-21.31,23.32-21.3,36.91S320.2,122,332,115.19s21.31-23.33,21.31-36.92S343.73,59.17,332,66Z" style="fill:#4FEB7B"></path><path d="M332,66c-11.77,6.79-21.31,23.32-21.3,36.91S320.2,122,332,115.19s21.31-23.33,21.31-36.92S343.73,59.17,332,66Z" style="opacity:0.2"></path><path d="M332,77c-6.51,3.76-11.79,12.91-11.79,20.43S325.45,108,332,104.2s11.79-12.91,11.79-20.43S338.48,73.19,332,77Z" style="fill:#fafafa"></path><path d="M332,84.83a11,11,0,0,0-5,8.62c0,3.17,2.23,4.46,5,2.87a11,11,0,0,0,5-8.62C336.94,84.53,334.71,83.24,332,84.83Z" style="fill:#455a64"></path></g><g id="freepik--Arrow--inject-106"><path d="M390.64,56.5s.69-8.81,4.77-11.17,6.28,4.79,3.64,6.31Z" style="fill:#4FEB7B"></path><path d="M390.64,56.5s8,3.81,12.05,1.46-1-7.84-3.64-6.31Z" style="fill:#4FEB7B"></path><path d="M390.64,56.5s8,3.81,12.05,1.46-1-7.84-3.64-6.31Z" style="fill:#fff;opacity:0.5"></path><polygon points="342.33 83.38 405.05 47.15 405.94 48.71 342.19 85.53 342.33 83.38" style="fill:#37474f"></polygon><path d="M404,50.48a2.64,2.64,0,1,1,3.6-1A2.64,2.64,0,0,1,404,50.48Z" style="fill:#263238"></path><path d="M343.89,83.51c2.16-2.85-1.75-7.78-1.75-7.78L332,90.4Z" style="fill:#4FEB7B"></path><path d="M343.89,83.51c2.16-2.85-1.75-7.78-1.75-7.78L332,90.4Z" style="fill:#4FEB7B"></path><path d="M349.76,88.92s-2.32-5.85-5.87-5.41L332,90.4Z" style="fill:#4FEB7B"></path><path d="M349.76,88.92s-2.32-5.85-5.87-5.41L332,90.4Z" style="fill:#fff;opacity:0.5"></path></g></g></g><g id="freepik--Character--inject-106"><g id="freepik--character--inject-106"><g id="freepik--Bottom--inject-106"><path d="M465.17,407.87c-.91-12.48.5-22.06-.54-41.56h0c-.1-5-.28-10.35-.61-15.1-1.13-16-3.6-21.48-3.83-24.57,0,0-.42-24.9-1.46-59.92-.5-16.47-5.27-21.46-9.08-30.2H404.31c-5.07,21.57-6.51,68.63-6.36,90.86.08,11.34,4.66,72,4.75,73.38.32,4.95-.11,6.9-2.05,9-4.06,4.36-9.95,8.51-15,12.31.74,1.95,6.86,1.88,9.89.39a76.93,76.93,0,0,0,11.3-7.2c4.18-3.09,9.53-5.58,9.59-10.29a5.93,5.93,0,0,1,.14-.84c.08-2.75,6.5-43.32,7-52.73.46-8.1-.53-21.83-.53-21.83l5.23-34.29s3.22,20.26,6.47,34.1c2.65,11.27,7,30.49,10,44.35h0c2.87,16,7.08,27.33,7.8,35.33.22,1.91,2.38,20.64,3.28,24.93s10.24,4.4,10.84-3C467.06,426.08,465.34,410.22,465.17,407.87Z" style="fill:#ffa8a7"></path><path d="M428.26,295.26l-3.82-24.73s-14.76-1.76-20.13-6.91c0,0,6.77,9.55,16.78,11.1l4.21,20.51-2.22,34Z" style="fill:#9a4a4d"></path><path d="M377,427c-.26,0-.68,2.85.71,4.07,1.61,1.42,6.35,3.77,12.65,3s9.73-2.65,12.27-4.74,6.11-5,9-5.61c2.65-.55,5.54-1.72,6.39-2.53s.78-4.44.78-4.44Z" style="fill:#263238"></path><path d="M416.67,402.78s.47,0,.62.86c.19,1,.37,3.92.76,5.57a29.41,29.41,0,0,1,.53,8.84c-.37,1.85-4.69,3.1-7.46,4.12a35.06,35.06,0,0,0-9,5.54,26,26,0,0,1-13.33,4.81c-6.27,0-10.3-1.72-11.53-4-1.52-2.8-.29-4.4,6.94-7.66,1.37-.61,6.19-3.39,7.83-4.4a38,38,0,0,0,4.94-3.59,30.15,30.15,0,0,0,2.22-2.16,9.65,9.65,0,0,0,1.84-2.3,6.32,6.32,0,0,0,.22-.61,10.07,10.07,0,0,0,.49-1.68c.12-.6.2-1.47.78-1.82a4.76,4.76,0,0,1,2.57-.28,19.69,19.69,0,0,1,2.77.42c1.06.25,2.29.36,2.9,1.36a5.22,5.22,0,0,1,.57,2.61c0,.42,0,.85,0,1.27,0,.18-.08.5.17.43s.51-.7.61-.91c.2-.47.33-1,.56-1.43a7,7,0,0,1,2.06-2.66,13.06,13.06,0,0,0,1.24-.79A3,3,0,0,0,416.67,402.78Z" style="fill:#37474f"></path><path d="M383.05,421.41c9.06.72,11.85,6.35,12.2,9.82a21.55,21.55,0,0,1-6.45,1.29c-6.27,0-10.56-1.72-11.79-4C375.58,425.89,376.59,423.78,383.05,421.41Z" style="fill:#fafafa"></path><path d="M396.64,421.65a.42.42,0,0,0,.28-.1.44.44,0,0,0,.07-.62,10.69,10.69,0,0,0-8.17-3.32.44.44,0,0,0,.09.88,9.92,9.92,0,0,1,7.39,3A.42.42,0,0,0,396.64,421.65Z" style="fill:#f0f0f0"></path><path d="M400.57,419.42a.44.44,0,0,0,.28-.1.44.44,0,0,0,.07-.62,10.65,10.65,0,0,0-8.17-3.32.43.43,0,0,0-.39.48.44.44,0,0,0,.48.4,9.85,9.85,0,0,1,7.39,3A.45.45,0,0,0,400.57,419.42Z" style="fill:#f0f0f0"></path><path d="M404.21,416.86a.42.42,0,0,0,.28-.1.43.43,0,0,0,.07-.62,10.65,10.65,0,0,0-8.16-3.32.44.44,0,1,0,.09.88,9.84,9.84,0,0,1,7.38,3A.44.44,0,0,0,404.21,416.86Z" style="fill:#f0f0f0"></path><path d="M407.79,414.3a.41.41,0,0,0,.27-.1.44.44,0,0,0,.08-.62c-1.71-2.21-5.62-3.7-8.92-3.37a.45.45,0,0,0-.4.48.46.46,0,0,0,.49.4c3-.29,6.61,1.07,8.13,3A.47.47,0,0,0,407.79,414.3Z" style="fill:#f0f0f0"></path><path d="M452.88,437.31c.25,4.28.91,7.12,2.43,9.62s4.38,3.3,7.28,2.57,6.61-2.7,7.44-6.39,1.32-6.22.66-10.18Z" style="fill:#263238"></path><path d="M465.07,406.35c1.19.09,1.54,5.83,2.23,11.58.74,6.16,2.58,8.71,3.24,13.77.75,5.77-.2,8.35-2.22,11.84s-9.19,6.91-12.72,1.91c-2.87-4.07-3-8.59-2.73-14.36a129.39,129.39,0,0,0-.38-14.6c-.24-4.33-1.19-8.68-.16-9.17.08.64.16,1.45.25,2.07a9.87,9.87,0,0,0,.38,2.3c.12.32.39.66.5.14a3.56,3.56,0,0,0,0-1.08c-.18-1.59.63-1.72,1.06-1.84a51.65,51.65,0,0,1,5.54-.79c.91-.06,4.06-.2,4.47.32a3.49,3.49,0,0,1,.4,1.67c.11.87.31,1.51.33,1.24.06-.63-.06-2.24-.08-2.63s-.07-.89-.08-1.27S465.09,406.71,465.07,406.35Z" style="fill:#37474f"></path><path d="M470.87,435a14.37,14.37,0,0,1-2.23,8.77c-2,3.49-9.76,6.93-13.29,1.93-1.76-2.49-2.23-5.43-2.47-8.43C455,433.46,467.54,431.76,470.87,435Z" style="fill:#fafafa"></path><path d="M455.49,431a.23.23,0,0,0,.14,0c.05,0,5.58-2.3,11-1.06a.44.44,0,0,0,.53-.33.43.43,0,0,0-.33-.53,20.8,20.8,0,0,0-11.54,1.12.45.45,0,0,0-.21.59A.44.44,0,0,0,455.49,431Z" style="fill:#f0f0f0"></path><path d="M466.32,425.63a.46.46,0,0,0,.38-.3.44.44,0,0,0-.28-.56c-5.35-1.82-11.3.91-11.52,1a.45.45,0,0,0,.41.79c.05,0,5.84-2.67,10.83-1A.55.55,0,0,0,466.32,425.63Z" style="fill:#f0f0f0"></path><path d="M466.13,421.57a.46.46,0,0,0,.38-.29.45.45,0,0,0-.27-.57c-5.89-2.11-11.53.87-11.74,1a.43.43,0,0,0-.15.6.44.44,0,0,0,.61.15c.05,0,5.5-2.88,11-.91A.41.41,0,0,0,466.13,421.57Z" style="fill:#f0f0f0"></path><path d="M465.84,417.58a.46.46,0,0,0,.37-.29.44.44,0,0,0-.26-.57c-5.52-2.07-11.59,1-11.82,1.12a.44.44,0,0,0-.16.6.43.43,0,0,0,.6.16c.06,0,5.95-3,11.07-1.05Z" style="fill:#ebebeb"></path><path d="M452.81,236.52c5.37,9.79,8.26,17.8,8.81,46.93s-.4,37.42-.29,40.93,2.16,9.79,3.95,27.09-.33,37.91-.33,37.91-1.23,2.78-7.85,3.37C451,393.3,448,391,448,391s-8.37-33.69-10.69-44.11-9-44.67-9-44.67l-4,27.78s1.86,9.55,0,24.72-5.14,30.71-5.14,30.71a27.54,27.54,0,0,1-9.38,1.53,15.82,15.82,0,0,1-8.22-2.15s-5.18-45.14-5.18-62.33,1.27-61,5.17-86.48Z" style="fill:#37474f"></path><path d="M428.26,302.23l-5.45-33.07s-11.5-.82-17.89-7.5c2.59,7.1,12,12.07,16.17,13.06L426,301.85,424.27,330Z" style="fill:#263238"></path><path d="M439.81,241.51a41.08,41.08,0,0,1,3.74,7.9,78.58,78.58,0,0,1,2.48,8.36c.66,2.84,1.2,5.69,1.58,8.57a56.27,56.27,0,0,1,.57,8.7c-.69-2.82-1.34-5.63-2-8.44s-1.27-5.61-1.95-8.41-1.35-5.58-2.06-8.36S440.68,244.29,439.81,241.51Z" style="fill:#263238"></path><path d="M443.61,242.56a31.14,31.14,0,0,1,3.94,4.42,43.68,43.68,0,0,1,3.2,5,37.49,37.49,0,0,1,2.42,5.41,22.83,22.83,0,0,1,1.33,5.77l-2.64-5.21c-.9-1.7-1.79-3.41-2.72-5.09s-1.86-3.37-2.79-5.07S444.47,244.35,443.61,242.56Z" style="fill:#263238"></path><path d="M437.3,277.36c1.25,9,2.38,18,3.51,27.05s2.35,18,4,26.93,3.4,17.86,5,26.81,3.11,17.93,4.49,26.93q-3.12-13.31-5.89-26.65c-1.87-8.91-3.64-17.8-5.38-26.76s-2.75-18-3.62-27.1S437.84,286.44,437.3,277.36Z" style="fill:#263238"></path><path d="M404.92,277.36l-1.48,23.71c-.22,3.95-.48,7.9-.66,11.85s-.41,7.91-.35,11.81.33,7.89.52,11.83l.6,11.87q.61,11.86.95,23.75-1.41-11.81-2.37-23.66c-.65-7.9-1.26-15.78-1.53-23.76,0-8,.71-15.89,1.42-23.8S403.7,285.19,404.92,277.36Z" style="fill:#263238"></path></g><g id="freepik--Top--inject-106"><path d="M448.45,136.92a9.61,9.61,0,0,0-5.11-3,28.16,28.16,0,0,1-4.86-1c-1.73-.64-3.23-1.78-5-2.44-3.78-1.46-8.26-.34-11.39,2.23-1.25,1-2.41,2.47-4.07,2.69a24.13,24.13,0,0,0-5.45,1.2,9.25,9.25,0,0,0-5,4.08,11,11,0,0,0-1.07,5.64c.12,2.11.68,4.25.62,6.35a7.78,7.78,0,0,1-1.92,4.23,14,14,0,0,0-2.86,5,9.92,9.92,0,0,0-.32,4.86,4.9,4.9,0,0,0,3,3.63c-.63-1.51.17-3.67,1.1-5-.31,1.46-.42,5,3.35,8,2.64,2.1,6.39,2.82,9.81,2.71,3.57-.1,7.16-1.44,10.74-.62a27.34,27.34,0,0,1,2.9,1,25.34,25.34,0,0,0,5.08,1.19c1.66.22,3.33,0,5,.23a10.67,10.67,0,0,0,7.61-2,12,12,0,0,0,4.34-9.55,5.42,5.42,0,0,1,1.18,2.64,7.83,7.83,0,0,0,1.33-7c-.56-1.85-1.81-3.5-2-5.42-.17-1.66.46-3.3.59-5a8.52,8.52,0,0,0-6.35-8.67A7.91,7.91,0,0,0,448.45,136.92Z" style="fill:#263238"></path><g id="freepik--Arm--inject-106"><path d="M412.19,185.29c-3.2.59-8.71,2.59-14.46,8.47-6.54,6.69-15.4,15.56-15.4,15.56l-28.19-9.53L353.87,215s19.77,9.8,26.4,12.17c5,1.78,6.87.5,11.81-3.44,6.39-5.1,18.82-15.21,18.82-15.21Z" style="fill:#ffa8a7"></path><path d="M412.85,184.7c-6.5,1-9.31,3.06-13.71,7.12s-8,7.53-8,7.53S392.49,210.53,402,217l10.17-8.76Z" style="fill:#4FEB7B"></path><path d="M412.85,184.7c-6.5,1-9.31,3.06-13.71,7.12s-8,7.53-8,7.53S392.49,210.53,402,217l10.17-8.76Z" style="opacity:0.30000000000000004"></path><g id="freepik--Tablet--inject-106"><path d="M350.81,180h0l1.61-.75h0a1.56,1.56,0,0,1,1.38.23l35.36,21.35a5.41,5.41,0,0,1,2.32,3.86l1.86,32.14a1.38,1.38,0,0,1-.61,1.44h0l-1.67.77h0a1.54,1.54,0,0,1-1.4-.23l-35.35-21.35a5.37,5.37,0,0,1-2.33-3.85c-.36-6.32-1.5-25.83-1.86-32.14C350.08,180.7,350.35,180.19,350.81,180Z" style="fill:#455a64"></path><path d="M388.82,202.85a5.29,5.29,0,0,1,1,2.62l1.87,32.13a1.47,1.47,0,0,1-.56,1.43l1.57-.73v0c.42-.2.65-.69.62-1.43l-1.87-32.15a5.13,5.13,0,0,0-.93-2.46Z" style="fill:#263238"></path><path d="M391.7,237.6l-1.86-32.14a5.37,5.37,0,0,0-2.33-3.85l-35.35-21.35c-1.21-.73-2.12-.18-2,1.23.36,6.31,1.5,25.82,1.86,32.14a5.37,5.37,0,0,0,2.33,3.85l35.35,21.35C390.87,239.56,391.78,239,391.7,237.6Z" style="fill:#37474f"></path><path d="M388.09,211.6l-.35-6a1,1,0,0,0-.44-.72l-2.43-1.46c-.23-.14-.4,0-.38.23.06,1.18.28,4.83.34,6a1,1,0,0,0,.44.72l2.43,1.47C387.93,212,388.1,211.86,388.09,211.6Z" style="fill:#455a64"></path><path d="M387.24,206.85a2.53,2.53,0,0,0-1.13-1.79c-.58-.35-1-.11-1,.52a2.56,2.56,0,0,0,1.12,1.8C386.83,207.73,387.28,207.49,387.24,206.85Z" style="fill:#263238"></path><path d="M387.38,209.88a2.54,2.54,0,0,0-1.12-1.79c-.59-.35-1-.12-1,.52a2.54,2.54,0,0,0,1.12,1.79C387,210.75,387.42,210.52,387.38,209.88Z" style="fill:#263238"></path><path d="M348.57,200c-.93-2.11-.76-2.32.15-3.11a5.86,5.86,0,0,1,5.18-1.41c1.6.38,3.23.69,4,1.29s-.33,2.2-2.53,2.23c-3.45.05-3.62,1-3.62,1s3.18,0,4.42.14a31.87,31.87,0,0,1,4.68,1.75c1.35.51,1.24,2.36-1.24,2.49l2.46.94c1.72.66,2.13,1.74.5,2.55a2.71,2.71,0,0,1-1.74.26s1.9.4,1.8,1c-.26,1.84-1.54,2.06-5.61,2.37-3.89.3-5.05,2.11-4.61,3.62,0,0-1.3-1.16-2.42-2.35-.82-.86-1.48-1.78-.73-3.19,0,0-2.1-.4-2-1.72a6.77,6.77,0,0,1,1.09-2.67,2.34,2.34,0,0,1-.71-2.39,3.81,3.81,0,0,1,1.24-2.11Z" style="fill:#ffa8a7"></path><path d="M359.58,204.37a12,12,0,0,0-2.26-.74,7.84,7.84,0,0,0-2.4.24,28.76,28.76,0,0,0-4.49,1.31,27.44,27.44,0,0,0,4.63-.63,12.34,12.34,0,0,1,2.21-.38C358,204.2,358.8,204.35,359.58,204.37Z" style="fill:#f28f8f"></path><path d="M360.8,208.12a5.35,5.35,0,0,0-2.49-.6,14.2,14.2,0,0,0-2.54.25,24.09,24.09,0,0,0-4.85,1.42,48,48,0,0,0,5-.74A13.54,13.54,0,0,1,360.8,208.12Z" style="fill:#f28f8f"></path></g></g><path id="freepik--Chest--inject-106" d="M460,251.72c-1.62-6.61-2.86-12.46-2.74-19.36.05-3,1.16-14.66,1.16-14.66s-4.07-12.28-1.41-31.41l-20.41-4.56-12.82,1.19-11,1.78a39.75,39.75,0,0,0-10.57,16.93c-2.08,6.29-1.4,23.18-3.28,48.66C406.14,260,442.21,264.88,460,251.72Z" style="fill:#4FEB7B"></path><g id="freepik--arm--inject-106"><path d="M422.24,209.58c-3.17-2.46-4.78-3.42-6.27-3.87s-6.72-2.73-8.73-3.27c-1.27-.34-1.82,1.69-.22,3.11,1.24,1.11,4.48,2.58,5.89,3.39s4.17,4.27,4.17,4.27Z" style="fill:#f28f8f"></path><path d="M470,197.9c-1.81-7.29-5.28-10.14-13-11.17-5.45,6.6-3.4,22-3.4,22l2.07,17s-18.81-3.07-21-4.5-7.89-7.81-9.81-9.73c-2.62-2.6-3.95-2.28-5.31-2.1-4.45.58-5.43.94-6.38,1.52a2,2,0,0,0-.89,1.71c-1.18.13-3,.06-3.21,2a5.2,5.2,0,0,0-.09,1.55,1.31,1.31,0,0,0-.78.43c-1,1.12.61,5.08,1.66,6,.74.69,1.81.79,3.22.63,1.19-.14.66-1.37.66-1.37l1.67.13c3.56,2.63,3.66,7.71,8.41,8.92a32.15,32.15,0,0,1,5.8,1.23c10.21,3.63,26.87,14.39,36,15.34,8.92.92,8.74-3.84,9-9.31C474.89,233.36,472.27,207,470,197.9Z" style="fill:#ffa8a7"></path><path d="M455.45,223.7l.25,2.05c4.05,1.12,8.73,6.57,9.66,8.81A13.3,13.3,0,0,0,455.45,223.7Z" style="fill:#f28f8f"></path><path d="M412.35,212.65l5.29-1-5.17.24A2.11,2.11,0,0,0,412.35,212.65Z" style="fill:#f28f8f"></path><path d="M409.05,216.19l6.07-.68-6.07,0A2.73,2.73,0,0,0,409.05,216.19Z" style="fill:#f28f8f"></path><path d="M409.8,218.88a2,2,0,0,0,.8.72,3.73,3.73,0,0,0,1,.37l-.08-.06c.16.32.33.64.5,1l.12-.16a1.2,1.2,0,0,0-1,.22,1.63,1.63,0,0,0-.55.78,2,2,0,0,1,.63-.65,1.22,1.22,0,0,1,.83-.13l.23.05-.11-.21c-.15-.32-.31-.64-.49-.95l0-.05h-.06a6.33,6.33,0,0,1-1-.3A2.31,2.31,0,0,1,409.8,218.88Z" style="fill:#f28f8f"></path><path d="M411.39,219.69a20.18,20.18,0,0,0,2.2.19,2.43,2.43,0,0,0,.73,1.18,11.86,11.86,0,0,0,1.16,1l-1.67-.13a2.66,2.66,0,0,0-1.89-1.06Z" style="fill:#f28f8f"></path><path d="M457,186.29c6.69,1.51,9.23,2.4,11.7,7.13s4.89,16.51,4.89,16.51a23.93,23.93,0,0,1-8.92,4.12,24.93,24.93,0,0,1-11.14-.48,94.5,94.5,0,0,1-1-11.93C452.65,197,453.05,189.94,457,186.29Z" style="fill:#4FEB7B"></path><path d="M457,186.29c6.69,1.51,9.23,2.4,11.7,7.13s4.89,16.51,4.89,16.51a23.93,23.93,0,0,1-8.92,4.12,24.93,24.93,0,0,1-11.14-.48,94.5,94.5,0,0,1-1-11.93C452.65,197,453.05,189.94,457,186.29Z" style="opacity:0.30000000000000004"></path></g><g id="freepik--Head--inject-106"><g id="freepik--head--inject-106"><g id="freepik--head--inject-106"><path d="M444.46,170.6a5.92,5.92,0,0,0,5.39-1.95c2.88-3.05,3.2-6.21,1.93-8.33-1-1.75-3.7-2.91-5.58-1.77s-2.11,2.23-2.89,3.63-2.69.26-1.94-5.41c-3.85-1.89-3.1-8.38-5.15-11.07-3.21-4.21-8.63-3.23-10.4-2.29a7,7,0,0,0-7.35-.6c-2.64,1.34-4.42,4.25-5.53,14.33-1.12,10.27.53,17.16,2.86,19.38,1.61,1.53,4.63,2.61,8.25,2.46l-.09,3.88s-10.65,10.72,2.7,10a21,21,0,0,0,15.26-8.29l.36-15.6S442.48,170.19,444.46,170.6Z" style="fill:#ffa8a7"></path><path d="M422.61,168.38a3,3,0,1,0,5.85-1.06Z" style="fill:#b16668"></path><path d="M428.46,168.3a3,3,0,0,1-2.4,2.48,3.08,3.08,0,0,1-1.05,0A3,3,0,0,1,428.46,168.3Z" style="fill:#f28f8f"></path><path d="M428.76,158.32a1.7,1.7,0,1,0,1.14-2.17A1.73,1.73,0,0,0,428.76,158.32Z" style="fill:#263238"></path><path d="M415.2,151.49l3.61-1.85a2,2,0,0,0-2.67-.93A2.13,2.13,0,0,0,415.2,151.49Z" style="fill:#263238"></path><path d="M419.21,157.7a1.7,1.7,0,1,1-.95-2.26A1.73,1.73,0,0,1,419.21,157.7Z" style="fill:#263238"></path><path d="M431.07,150.4l3.79,2.14a2.09,2.09,0,0,0-.74-2.93A2.29,2.29,0,0,0,431.07,150.4Z" style="fill:#263238"></path><path d="M409.81,153.64a2.69,2.69,0,0,0,.57,1.58,1.24,1.24,0,0,1,.23.57,24.86,24.86,0,0,0,.6,4.24,4.52,4.52,0,0,0,4.44,3.19,7.16,7.16,0,0,0,1.63-.06l.12,0a5.17,5.17,0,0,0,1.36-.43l.09,0,.12-.07.15-.08.14-.09.15-.1.15-.11a3.22,3.22,0,0,0,.28-.24,6.14,6.14,0,0,0,1.22-1.54c.84-1.44.87-3.5,2-3.68h.29c1.53.09,1.13,2.31,1.82,3.95s1.94,3.25,5.26,3.44l.43,0h.35a5.2,5.2,0,0,0,.81-.07l.26,0,.24-.06.16,0a4.72,4.72,0,0,0,.94-.37,2,2,0,0,0,.32-.18,3.3,3.3,0,0,0,.57-.41,5.44,5.44,0,0,0,1.16-1.43,27.39,27.39,0,0,0,1.34-4.12,2,2,0,0,1,.32-.59,3.06,3.06,0,0,0,.9-1.47,1.22,1.22,0,0,0-.79-1.35l-.8-.14a26.07,26.07,0,0,0-8.1-.27c-2.64.55-3.61,1.29-5,1.2s-2.11-.93-4.47-1.8a23,23,0,0,0-7.53-.71l-.77,0A1.32,1.32,0,0,0,409.81,153.64Zm16.71,2.28a2.35,2.35,0,0,1,.79-.53l.14-.07.07,0,.38-.15.35-.11a11,11,0,0,1,1.13-.28l.45-.08a11,11,0,0,1,1.14-.12h.27c2.49-.08,4,.54,4.48,1s0,2.68-.31,3.77a.19.19,0,0,0,0,.08l0,.08c0,.13-.09.28-.15.44l-.11.27v0q-.09.21-.21.45h0a1.09,1.09,0,0,0-.08.15l-.06.1-.06.1-.08.13-.1.14-.11.15-.13.15a4.2,4.2,0,0,1-3.61,1.39,4.64,4.64,0,0,1-3.51-1.48h0a4.52,4.52,0,0,1-1-2.28C426,158,426,156.57,426.52,155.92Zm-14.41-1.8a2.36,2.36,0,0,1,.64-.34l.05,0,.28-.08.17-.05.14,0h.13l.14,0,.57-.07h.64l.4,0h.28c.35,0,.73.08,1.13.15,1.73.32,3.49,1.18,3.9,1.89s.15,2.13-.21,3.35a5.53,5.53,0,0,1-.3.81l0,.06a.3.3,0,0,0,0,.08l0,.06-.05.09-.12.2a1.63,1.63,0,0,1-.11.17l0,.06-.09.11a.61.61,0,0,1-.07.1v0a4.2,4.2,0,0,1-3.84,1.42,4.3,4.3,0,0,1-1.8-.5,4.62,4.62,0,0,1-2-3.69C411.66,156.77,411.54,154.57,412.11,154.12Z" style="fill:#37474f"></path><path d="M418.13,163.11l5.6,2.55,1-6.77c-.19-1.08-.36-2-1.29-2.13Z" style="fill:#f28f8f"></path><path d="M437.57,154.22l8.63,4.33a8.81,8.81,0,0,0-1.37,1L437.31,156Z" style="fill:#37474f"></path></g></g><path d="M424.05,179c5.22-.1,12.24-1.83,14.18-5.16-1.11,3.61-4.82,5.42-7.76,6.19a30.12,30.12,0,0,1-6.41,1Z" style="fill:#f28f8f"></path></g></g></g></g><g id="freepik--speech-bubble--inject-106"><g id="freepik--speech-bubble--inject-106"><g id="freepik--speech-bubble--inject-106"><path d="M407.17,88.76a21.85,21.85,0,0,0,5.95,15l1.82,1.72a21.89,21.89,0,0,0,30.82-30.9L444,72.73a21.9,21.9,0,0,0-36.86,16Z" style="fill:#fff"></path><path d="M405.32,88.77a23.79,23.79,0,0,0,19.84,23.4l2.68,6.89a1.38,1.38,0,0,0,2.57,0l2.66-6.89a23.77,23.77,0,1,0-27.75-23.39Zm23.74-22a21.81,21.81,0,0,1,15,5.91l1.73,1.81a21.89,21.89,0,0,1-30.82,30.9l-1.82-1.72a21.9,21.9,0,0,1,15.94-36.9Z" style="fill:#455a64"></path><path d="M429.06,66.82a21.81,21.81,0,0,1,15,5.91l1.73,1.81a21.89,21.89,0,0,1-30.82,30.9l-1.82-1.72a21.9,21.9,0,0,1,15.94-36.9Z" style="fill:#fff;opacity:0.7000000000000001"></path></g><g id="freepik--Check--inject-106"><path d="M426.31,101.78a3.28,3.28,0,0,1-2.4-1l-7.46-8a3.29,3.29,0,0,1,4.81-4.5l4.84,5.17,11.46-14.51A3.29,3.29,0,0,1,442.72,83l-13.83,17.51a3.28,3.28,0,0,1-2.44,1.25Z" style="fill:#4FEB7B"></path></g></g></g></svg>
