<svg width="179" height="173" viewBox="0 0 179 173" fill="none" xmlns="http://www.w3.org/2000/svg">
<path d="M179 88C179 70.0716 173.331 52.6022 162.804 38.0899L94 88H179Z" fill="#49D180"/>
<path d="M161.127 36.5386C150.647 21.8911 135.784 10.9512 118.684 5.29706L92 86L161.127 36.5386Z" fill="#9DCB78"/>
<path d="M0 88C0 70.4438 5.43619 53.3183 15.5617 38.9763L85 88H0Z" fill="#EE5151"/>
<path d="M17.8728 36.5386C28.3533 21.8911 43.2157 10.9512 60.316 5.29706L87 86L17.8728 36.5386Z" fill="#FD9459"/>
<path d="M115.771 4.00092C98.6143 -1.45776 80.1674 -1.3277 63.0893 4.37236L90 85L115.771 4.00092Z" fill="#F2E143"/>
</svg>
