<svg width="173" height="172" viewBox="0 0 173 172" fill="none" xmlns="http://www.w3.org/2000/svg">
<path d="M173 86C173 63.1914 163.887 41.3169 147.665 25.1888C131.443 9.06069 109.441 1.722e-06 86.5 0C63.5588 -1.722e-06 41.5572 9.06068 25.3353 25.1888C9.11337 41.3169 3.46403e-06 63.1914 0 86L86.5 86H173Z" fill="url(#paint0_angular_7_159)"/>
<path d="M13.84 37.8401L88.2369 86.0001L160.025 37.8401" stroke="#202020" stroke-width="2"/>
<path d="M55.7925 5.15991L87.365 85.1399L117.208 5.15991" stroke="#202020" stroke-width="2"/>
<path d="M79.1876 92.1762C83.4999 96.1898 90.2694 95.9666 94.3079 91.6777C98.3464 87.3888 98.1246 80.6583 93.8124 76.6446C89.5001 72.631 82.7306 72.8542 78.6921 77.1431C74.6536 81.432 74.8754 88.1625 79.1876 92.1762ZM124.986 47.4022C125.753 46.6073 125.726 45.3449 124.927 44.5826C124.128 43.8203 122.858 43.8468 122.091 44.6418L124.986 47.4022ZM87.9472 85.7906L124.986 47.4022L122.091 44.6418L85.0528 83.0302L87.9472 85.7906Z" fill="#676767"/>
<defs>
<radialGradient id="paint0_angular_7_159" cx="0" cy="0" r="1" gradientUnits="userSpaceOnUse" gradientTransform="translate(86.5 86) rotate(90) scale(86 86.5)">
<stop offset="0.265625" stop-color="#FF3030"/>
<stop offset="0.505208" stop-color="#FFE55E"/>
<stop offset="0.760417" stop-color="#48FF5B"/>
</radialGradient>
</defs>
</svg>
