<svg width="183" height="75" viewBox="0 0 183 75" fill="none" xmlns="http://www.w3.org/2000/svg">
<rect x="-2" y="2" width="179" height="59" rx="8" transform="matrix(-1 0 0 1 179 0)" fill="#BD74C9" stroke="#74C996" stroke-width="4"/>
<path d="M160.414 31.5858C161.195 32.3668 161.195 33.6332 160.414 34.4142L147.686 47.1421C146.905 47.9232 145.639 47.9232 144.858 47.1421C144.077 46.3611 144.077 45.0948 144.858 44.3137L156.172 33L144.858 21.6863C144.077 20.9052 144.077 19.6389 144.858 18.8579C145.639 18.0768 146.905 18.0768 147.686 18.8579L160.414 31.5858ZM115 31L159 31L159 35L115 35L115 31Z" fill="#E0DADA"/>
<path d="M26.29 43V18.5H30.385L44.595 37.645L43.825 37.785C43.7317 37.1317 43.65 36.4667 43.58 35.79C43.51 35.09 43.44 34.3667 43.37 33.62C43.3233 32.8733 43.2767 32.0917 43.23 31.275C43.2067 30.4583 43.1833 29.6067 43.16 28.72C43.1367 27.81 43.125 26.8533 43.125 25.85V18.5H47.64V43H43.475L29.195 24.135L30.105 23.89C30.2217 25.1967 30.315 26.3167 30.385 27.25C30.4783 28.16 30.5483 28.9533 30.595 29.63C30.6417 30.2833 30.6767 30.8317 30.7 31.275C30.7467 31.7183 30.77 32.1267 30.77 32.5C30.7933 32.85 30.805 33.1883 30.805 33.515V43H26.29ZM62.0898 43.35C60.1531 43.35 58.4381 42.9417 56.9448 42.125C55.4748 41.3083 54.3198 40.2 53.4798 38.8C52.6631 37.3767 52.2548 35.755 52.2548 33.935C52.2548 32.4883 52.4881 31.17 52.9548 29.98C53.4215 28.79 54.0631 27.7633 54.8798 26.9C55.7198 26.0133 56.7115 25.3367 57.8548 24.87C59.0215 24.38 60.2931 24.135 61.6698 24.135C62.8831 24.135 64.0148 24.3683 65.0648 24.835C66.1148 25.3017 67.0248 25.9433 67.7948 26.76C68.5648 27.5533 69.1481 28.51 69.5448 29.63C69.9648 30.7267 70.1631 31.9283 70.1398 33.235L70.1048 34.74H55.1598L54.3548 31.8H66.4998L65.9398 32.395V31.625C65.8698 30.9017 65.6365 30.2717 65.2398 29.735C64.8431 29.175 64.3298 28.7433 63.6998 28.44C63.0931 28.1133 62.4165 27.95 61.6698 27.95C60.5265 27.95 59.5581 28.1717 58.7648 28.615C57.9948 29.0583 57.4115 29.7 57.0148 30.54C56.6181 31.3567 56.4198 32.3833 56.4198 33.62C56.4198 34.81 56.6648 35.8483 57.1548 36.735C57.6681 37.6217 58.3798 38.31 59.2898 38.8C60.2231 39.2667 61.3081 39.5 62.5448 39.5C63.4081 39.5 64.2015 39.36 64.9248 39.08C65.6481 38.8 66.4298 38.2983 67.2698 37.575L69.4048 40.55C68.7748 41.1333 68.0515 41.635 67.2348 42.055C66.4415 42.4517 65.6015 42.7667 64.7148 43C63.8281 43.2333 62.9531 43.35 62.0898 43.35ZM85.7851 43L80.5351 35.895L79.5551 34.565L71.9601 24.555H77.2801L82.3901 31.485L83.4751 32.955L91.0001 43H85.7851ZM71.9251 43L79.2401 33.2L81.6901 36.14L77.0001 43H71.9251ZM83.4751 34.39L81.1301 31.485L85.3651 24.555H90.4401L83.4751 34.39ZM96.0795 43V19.865H100.384V43H96.0795ZM92.4395 28.545V24.555H104.409V28.545H92.4395Z" fill="#E0DADA"/>
</svg>
